<?xml version="1.0" encoding="utf-8"?>
<!-- Generator: Adobe Illustrator 16.0.0, SVG Export Plug-In . SVG Version: 6.00 Build 0)  -->
<!DOCTYPE svg PUBLIC "-//W3C//DTD SVG 1.1//EN" "http://www.w3.org/Graphics/SVG/1.1/DTD/svg11.dtd">
<svg version="1.1" id="Layer_1" xmlns="http://www.w3.org/2000/svg" xmlns:xlink="http://www.w3.org/1999/xlink" x="0px" y="0px"
	 width="94px" height="94px" viewBox="0 0 94 94" enable-background="new 0 0 94 94" xml:space="preserve">
<g>
	<g>
		<path fill="#98694C" d="M24.082,68.203l-9.546-4.616l-0.011-0.008l1.868-10.445c0.562,2.815,1.501,5.524,2.8,8.071
			C20.497,63.754,22.137,66.1,24.082,68.203"/>
		<polygon fill="#98694C" points="24.92,69.44 26.207,86.322 19.641,74.717 		"/>
		<path fill="#98694C" d="M30.477,79.496l-4.636-9.542c2.103,1.938,4.46,3.575,7.015,4.878c2.558,1.302,5.267,2.243,8.066,2.796
			L30.48,79.496H30.477z"/>
		<polygon fill="#98694C" points="25.412,70.078 30.105,79.738 26.666,86.501 		"/>
		<polygon fill="#98694C" points="41.076,78.05 27.06,86.703 30.498,79.939 		"/>
		<polygon fill="#98694C" points="41.885,78.068 40.729,85.39 40.721,85.441 27.467,86.972 		"/>
		<path fill="#98694C" d="M53.343,91.545c-2.118,0.3-4.265,0.455-6.39,0.455c-6.779,0-13.566-1.575-19.682-4.562l13.607-1.572
			L53.343,91.545z"/>
		<polygon fill="#98694C" points="42.32,78.137 53.303,91.038 41.157,85.51 		"/>
		<polygon fill="#98694C" points="53.769,90.91 43.095,78.365 52.575,83.411 		"/>
		<path fill="#98694C" d="M51.911,77.833c2.837-0.451,5.583-1.285,8.174-2.48l-7.351,7.644l-9.363-4.983
			C46.204,78.347,49.085,78.285,51.911,77.833"/>
		<polygon fill="#98694C" points="60.456,75.606 54.205,90.84 53.014,83.342 		"/>
		<polygon fill="#98694C" points="64.516,81.79 64.516,81.792 54.693,90.818 54.689,90.818 61.121,75.143 		"/>
		<path fill="#98694C" d="M54.807,91.31l10.083-9.267h0.004l13.423-2.73C71.83,85.606,63.73,89.743,54.807,91.31"/>
		<polygon fill="#98694C" points="77.982,78.923 64.912,81.591 61.518,74.945 		"/>
		<polygon fill="#98694C" points="78.291,78.545 62.28,74.673 72.916,73.183 		"/>
		<path fill="#98694C" d="M74.242,62.246L72.8,72.754l-10.498,1.472c2.485-1.402,4.769-3.135,6.791-5.164
			C71.119,67.032,72.847,64.745,74.242,62.246"/>
		<polygon fill="#98694C" points="74.689,62.231 78.599,78.233 73.229,72.871 		"/>
		<polygon fill="#98694C" points="81.615,64.849 78.98,77.929 74.958,61.468 		"/>
		<polygon fill="#98694C" points="90.844,54.616 81.817,64.452 75.16,61.075 		"/>
		<path fill="#98694C" d="M82.07,64.827l9.266-10.09c-1.535,8.776-5.76,17.074-11.971,23.518L82.07,64.827z"/>
		<polygon fill="#98694C" points="90.865,54.132 75.619,60.411 83.363,52.954 		"/>
		<path fill="#98694C" d="M78.001,43.323l5.017,9.351l-0.007,0.007l-7.638,7.352c1.195-2.603,2.025-5.344,2.47-8.17
			C78.287,49.041,78.338,46.175,78.001,43.323"/>
		<polygon fill="#98694C" points="90.932,53.695 83.437,52.517 83.433,52.517 78.353,43.048 		"/>
		<polygon fill="#98694C" points="91.061,53.225 78.122,42.273 85.492,41.095 		"/>
		<path fill="#98694C" d="M91.566,53.266l-5.715-12.449l1.562-13.612c1.965,4.008,3.314,8.283,4.02,12.724
			C92.143,44.365,92.188,48.847,91.566,53.266"/>
		<polygon fill="#98694C" points="78.052,41.836 78.141,41.697 81.645,36.005 86.949,27.402 85.422,40.659 78.158,41.822 		"/>
		<polygon fill="#98694C" points="86.686,26.991 86.578,27.167 78.033,41.026 79.92,30.441 		"/>
		<path fill="#98694C" d="M69.914,25.806l9.562,4.617l-1.864,10.459c-0.562-2.815-1.502-5.523-2.805-8.07
			C73.508,30.257,71.863,27.909,69.914,25.806"/>
		<polygon fill="#98694C" points="86.482,26.598 79.718,30.052 70.047,25.38 		"/>
		<polygon fill="#98694C" points="86.311,26.144 69.396,24.889 74.672,19.596 		"/>
		<path fill="#98694C" d="M68.054,7.239c7.906,4.198,14.494,10.772,18.683,18.637l-11.94-6.716L68.054,7.239z"/>
		<polygon fill="#98694C" points="74.359,19.288 69.085,24.577 67.789,7.668 74.359,19.284 		"/>
		<polygon fill="#98694C" points="68.594,23.934 63.895,14.263 67.33,7.503 		"/>
		<path fill="#98694C" d="M68.164,24.062c-2.104-1.938-4.46-3.578-7.014-4.877c-2.562-1.307-5.271-2.246-8.071-2.8l10.445-1.876
			L68.164,24.062z"/>
		<polygon fill="#98694C" points="66.941,7.301 63.503,14.062 52.932,15.962 		"/>
		<polygon fill="#98694C" points="66.534,7.033 52.116,15.944 53.28,8.564 		"/>
		<path fill="#98694C" d="M40.654,2.457c8.971-1.277,17.955,0.136,26.074,4.107l-13.605,1.57L40.654,2.457z"/>
		<polygon fill="#98694C" points="52.844,8.494 51.681,15.875 40.699,2.963 		"/>
		<polygon fill="#98694C" points="50.91,15.647 41.426,10.59 40.232,3.095 		"/>
		<path fill="#98694C" d="M41.268,11.004L50.635,16c-2.834-0.327-5.719-0.268-8.541,0.183c-2.842,0.452-5.583,1.285-8.178,2.481
			L41.268,11.004z"/>
		<polygon fill="#98694C" points="40.988,10.66 33.553,18.407 39.719,3.349 39.795,3.165 		"/>
		<polygon fill="#98694C" points="29.482,12.212 39.311,3.183 32.885,18.869 32.881,18.869 29.482,12.215 		"/>
		<path fill="#98694C" d="M39.193,2.691l-10.082,9.267h-0.004l-13.419,2.731C22.171,8.395,30.271,4.258,39.193,2.691"/>
		<polygon fill="#98694C" points="32.487,19.071 16.015,15.075 29.09,12.414 		"/>
		<polygon fill="#98694C" points="31.721,19.343 21.084,20.818 15.718,15.456 		"/>
		<path fill="#98694C" d="M31.71,19.787c-2.492,1.398-4.772,3.134-6.802,5.167c-2.022,2.029-3.75,4.319-5.148,6.819l1.441-10.526
			L31.71,19.787z"/>
		<polygon fill="#98694C" points="20.771,21.13 19.312,31.781 15.402,15.769 		"/>
		<polygon fill="#98694C" points="15.021,16.069 19.047,32.548 12.385,29.153 		"/>
		<path fill="#98694C" d="M14.635,15.746L11.93,29.175L2.666,39.264C4.203,30.489,8.425,22.19,14.635,15.746"/>
		<polygon fill="#98694C" points="12.184,29.546 18.845,32.941 3.154,39.385 		"/>
		<polygon fill="#98694C" points="18.383,33.608 10.638,41.051 3.136,39.869 		"/>
		<path fill="#98694C" d="M18.636,33.975c-1.196,2.606-2.03,5.344-2.478,8.177c-0.444,2.83-0.496,5.704-0.154,8.537l-5.021-9.363
			L18.636,33.975z"/>
		<polygon fill="#98694C" points="10.568,41.484 15.652,50.964 3.066,40.303 		"/>
		<polygon fill="#98694C" points="15.883,51.738 8.513,52.913 2.938,40.776 		"/>
		<path fill="#98694C" d="M2.435,40.736l5.719,12.453L6.586,66.8c-1.959-4.007-3.314-8.283-4.02-12.724
			C1.858,49.639,1.814,45.15,2.435,40.736"/>
		<polygon fill="#98694C" points="15.953,52.179 7.052,66.606 8.582,53.35 15.953,52.175 		"/>
		<polygon fill="#98694C" points="24.607,69.124 19.329,74.405 7.698,67.858 		"/>
		<polygon fill="#98694C" points="23.961,68.632 7.525,67.402 14.283,63.953 		"/>
		<polygon fill="#98694C" points="15.971,52.99 14.081,63.56 7.324,67.006 		"/>
		<path fill="#98694C" d="M25.943,86.758c-2.309-1.236-4.35-2.518-6.066-3.82c-0.062-0.052-0.151-0.063-0.225-0.025L3.727,90.289
			l7.399-15.972c0.033-0.074,0.026-0.159-0.025-0.224c-1.622-2.176-2.831-4.044-3.847-5.972l11.951,6.721L25.943,86.758z"/>
	</g>
	<g>
		<path fill="#58595B" d="M34.189,42.097h4.566v1.037l-1.667,2.171c0.966,0.126,1.905,1.037,1.905,2.186v1.961
			c0,1.429-1.163,2.591-2.62,2.591h-0.098c-1.457,0-2.62-1.148-2.62-2.577v-0.28h1.178v0.295c0,0.826,0.658,1.456,1.498,1.456
			c0.826,0,1.484-0.645,1.484-1.471v-1.961c0-0.603-0.49-1.106-1.105-1.106H35.66v-1.051l1.597-2.143h-3.067V42.097z"/>
		<path fill="#58595B" d="M45.91,49.465c0,1.429-1.121,2.577-2.508,2.577h-0.098c-1.401,0-2.494-1.162-2.494-2.591v-4.917
			c0-1.429,1.093-2.577,2.494-2.577h0.098c1.387,0,2.508,1.148,2.508,2.577V49.465z M44.747,44.549c0-0.827-0.616-1.485-1.401-1.485
			c-0.77,0-1.387,0.658-1.387,1.485v4.916c0,0.826,0.617,1.471,1.401,1.471c0.771,0,1.387-0.63,1.387-1.456V44.549z"/>
		<path fill="#58595B" d="M52.826,49.465c0,1.429-1.121,2.577-2.508,2.577h-0.098c-1.401,0-2.494-1.162-2.494-2.591v-4.917
			c0-1.429,1.093-2.577,2.494-2.577h0.098c1.387,0,2.508,1.148,2.508,2.577V49.465z M51.663,44.549c0-0.827-0.616-1.485-1.401-1.485
			c-0.77,0-1.387,0.658-1.387,1.485v4.916c0,0.826,0.617,1.471,1.401,1.471c0.771,0,1.387-0.63,1.387-1.456V44.549z"/>
		<path fill="#58595B" d="M59.32,46.636h-3.123v0.798h2.689v1.107h-2.689v0.924c0,0.812,0.658,1.485,1.484,1.485
			s1.485-0.659,1.485-1.471v-0.169h1.177v0.154c0,1.429-1.163,2.577-2.619,2.577h-0.084c-1.457,0-2.62-1.162-2.62-2.591v-0.91
			h-0.658v-1.107h0.658v-0.798h-0.658V45.53h0.658v-0.995c0-1.429,1.163-2.577,2.62-2.577h0.084c1.456,0,2.619,1.106,2.619,2.592
			h-1.177c0-0.812-0.659-1.472-1.485-1.472s-1.484,0.659-1.484,1.472v0.98h3.123V46.636z"/>
	</g>
</g>
</svg>
