<?xml version="1.0" encoding="utf-8"?>
<!-- Generator: Adobe Illustrator 16.0.0, SVG Export Plug-In . SVG Version: 6.00 Build 0)  -->
<!DOCTYPE svg PUBLIC "-//W3C//DTD SVG 1.1//EN" "http://www.w3.org/Graphics/SVG/1.1/DTD/svg11.dtd">
<svg version="1.1" id="Layer_1" xmlns="http://www.w3.org/2000/svg" xmlns:xlink="http://www.w3.org/1999/xlink" x="0px" y="0px"
	 width="95px" height="95px" viewBox="0 0 95 95" enable-background="new 0 0 95 95" xml:space="preserve">
<g>
	<g>
		<path fill="#9FBCBD" d="M24.582,68.703l-9.546-4.616l-0.011-0.008l1.868-10.445c0.562,2.815,1.501,5.524,2.8,8.071
			C20.997,64.254,22.637,66.6,24.582,68.703"/>
		<polygon fill="#9FBCBD" points="25.42,69.94 26.707,86.822 20.141,75.217 		"/>
		<path fill="#9FBCBD" d="M30.977,79.996l-4.636-9.542c2.103,1.938,4.46,3.575,7.015,4.878c2.558,1.302,5.267,2.243,8.066,2.796
			L30.98,79.996H30.977z"/>
		<polygon fill="#9FBCBD" points="25.912,70.578 30.605,80.238 27.166,87.001 		"/>
		<polygon fill="#9FBCBD" points="41.576,78.55 27.56,87.203 30.998,80.439 		"/>
		<polygon fill="#9FBCBD" points="42.385,78.568 41.229,85.89 41.221,85.941 27.967,87.472 		"/>
		<path fill="#9FBCBD" d="M53.843,92.045c-2.118,0.3-4.265,0.455-6.39,0.455c-6.779,0-13.566-1.575-19.682-4.562l13.607-1.572
			L53.843,92.045z"/>
		<polygon fill="#9FBCBD" points="42.82,78.637 53.803,91.538 41.657,86.01 		"/>
		<polygon fill="#9FBCBD" points="54.269,91.41 43.595,78.865 53.075,83.911 		"/>
		<path fill="#9FBCBD" d="M52.411,78.333c2.837-0.451,5.583-1.285,8.174-2.48l-7.351,7.644l-9.363-4.983
			C46.704,78.847,49.585,78.785,52.411,78.333"/>
		<polygon fill="#9FBCBD" points="60.956,76.106 54.705,91.34 53.514,83.842 		"/>
		<polygon fill="#9FBCBD" points="65.016,82.29 65.016,82.292 55.193,91.318 55.189,91.318 61.621,75.643 		"/>
		<path fill="#9FBCBD" d="M55.307,91.81l10.083-9.267h0.004l13.423-2.73C72.33,86.106,64.23,90.243,55.307,91.81"/>
		<polygon fill="#9FBCBD" points="78.482,79.423 65.412,82.091 62.018,75.445 		"/>
		<polygon fill="#9FBCBD" points="78.791,79.045 62.78,75.173 73.416,73.683 		"/>
		<path fill="#9FBCBD" d="M74.742,62.746L73.3,73.254l-10.498,1.472c2.485-1.402,4.769-3.135,6.791-5.164
			C71.619,67.532,73.347,65.245,74.742,62.746"/>
		<polygon fill="#9FBCBD" points="75.189,62.731 79.099,78.733 73.729,73.371 		"/>
		<polygon fill="#9FBCBD" points="82.115,65.349 79.48,78.429 75.458,61.968 		"/>
		<polygon fill="#9FBCBD" points="91.344,55.116 82.317,64.952 75.66,61.575 		"/>
		<path fill="#9FBCBD" d="M82.57,65.327l9.266-10.09c-1.535,8.776-5.76,17.074-11.971,23.518L82.57,65.327z"/>
		<polygon fill="#9FBCBD" points="91.365,54.632 76.119,60.911 83.863,53.454 		"/>
		<path fill="#9FBCBD" d="M78.501,43.823l5.017,9.351l-0.007,0.007l-7.638,7.352c1.195-2.603,2.025-5.344,2.47-8.17
			C78.787,49.541,78.838,46.675,78.501,43.823"/>
		<polygon fill="#9FBCBD" points="91.432,54.195 83.937,53.017 83.933,53.017 78.853,43.548 		"/>
		<polygon fill="#9FBCBD" points="91.561,53.725 78.622,42.773 85.992,41.595 		"/>
		<path fill="#9FBCBD" d="M92.066,53.766l-5.715-12.449l1.562-13.612c1.965,4.008,3.314,8.283,4.02,12.724
			C92.643,44.865,92.688,49.347,92.066,53.766"/>
		<polygon fill="#9FBCBD" points="78.552,42.336 78.641,42.197 82.145,36.505 87.449,27.902 85.922,41.159 78.658,42.322 		"/>
		<polygon fill="#9FBCBD" points="87.186,27.491 87.078,27.667 78.533,41.526 80.42,30.941 		"/>
		<path fill="#9FBCBD" d="M70.414,26.306l9.562,4.617l-1.864,10.459c-0.562-2.815-1.502-5.523-2.805-8.07
			C74.008,30.757,72.363,28.409,70.414,26.306"/>
		<polygon fill="#9FBCBD" points="86.982,27.098 80.218,30.552 70.547,25.88 		"/>
		<polygon fill="#9FBCBD" points="86.811,26.644 69.896,25.389 75.172,20.096 		"/>
		<path fill="#9FBCBD" d="M68.554,7.739c7.906,4.198,14.494,10.772,18.683,18.637l-11.94-6.716L68.554,7.739z"/>
		<polygon fill="#9FBCBD" points="74.859,19.788 69.585,25.077 68.289,8.168 74.859,19.784 		"/>
		<polygon fill="#9FBCBD" points="69.094,24.434 64.395,14.763 67.83,8.003 		"/>
		<path fill="#9FBCBD" d="M68.664,24.562c-2.104-1.938-4.46-3.578-7.014-4.877c-2.562-1.307-5.271-2.246-8.071-2.8l10.445-1.876
			L68.664,24.562z"/>
		<polygon fill="#9FBCBD" points="67.441,7.801 64.003,14.562 53.432,16.462 		"/>
		<polygon fill="#9FBCBD" points="67.034,7.533 52.616,16.444 53.78,9.064 		"/>
		<path fill="#9FBCBD" d="M41.154,2.957c8.971-1.277,17.955,0.136,26.074,4.107l-13.605,1.57L41.154,2.957z"/>
		<polygon fill="#9FBCBD" points="53.344,8.994 52.181,16.375 41.199,3.463 		"/>
		<polygon fill="#9FBCBD" points="51.41,16.147 41.926,11.09 40.732,3.595 		"/>
		<path fill="#9FBCBD" d="M41.768,11.504l9.367,4.995c-2.834-0.327-5.719-0.268-8.541,0.183c-2.842,0.452-5.583,1.285-8.178,2.481
			L41.768,11.504z"/>
		<polygon fill="#9FBCBD" points="41.488,11.16 34.053,18.907 40.219,3.849 40.295,3.665 		"/>
		<polygon fill="#9FBCBD" points="29.982,12.712 39.811,3.683 33.385,19.369 33.381,19.369 29.982,12.715 		"/>
		<path fill="#9FBCBD" d="M39.693,3.191l-10.082,9.267h-0.004l-13.419,2.731C22.671,8.895,30.771,4.758,39.693,3.191"/>
		<polygon fill="#9FBCBD" points="32.987,19.571 16.515,15.575 29.59,12.914 		"/>
		<polygon fill="#9FBCBD" points="32.221,19.843 21.584,21.318 16.218,15.956 		"/>
		<path fill="#9FBCBD" d="M32.21,20.287c-2.492,1.398-4.772,3.134-6.802,5.167c-2.022,2.029-3.75,4.319-5.148,6.819l1.441-10.526
			L32.21,20.287z"/>
		<polygon fill="#9FBCBD" points="21.271,21.63 19.812,32.281 15.902,16.269 		"/>
		<polygon fill="#9FBCBD" points="15.521,16.569 19.547,33.048 12.885,29.653 		"/>
		<path fill="#9FBCBD" d="M15.135,16.246L12.43,29.675L3.166,39.764C4.703,30.989,8.925,22.69,15.135,16.246"/>
		<polygon fill="#9FBCBD" points="12.684,30.046 19.345,33.441 3.654,39.885 		"/>
		<polygon fill="#9FBCBD" points="18.883,34.108 11.138,41.551 3.636,40.369 		"/>
		<path fill="#9FBCBD" d="M19.136,34.475c-1.196,2.606-2.03,5.344-2.478,8.177c-0.444,2.83-0.496,5.704-0.154,8.537l-5.021-9.363
			L19.136,34.475z"/>
		<polygon fill="#9FBCBD" points="11.068,41.984 16.152,51.464 3.566,40.803 		"/>
		<polygon fill="#9FBCBD" points="16.383,52.238 9.013,53.413 3.438,41.276 		"/>
		<path fill="#9FBCBD" d="M2.935,41.236l5.719,12.453L7.086,67.3c-1.959-4.007-3.314-8.283-4.02-12.724
			C2.358,50.139,2.314,45.65,2.935,41.236"/>
		<polygon fill="#9FBCBD" points="16.453,52.679 7.552,67.106 9.082,53.85 16.453,52.675 		"/>
		<polygon fill="#9FBCBD" points="25.107,69.624 19.829,74.905 8.198,68.358 		"/>
		<polygon fill="#9FBCBD" points="24.461,69.132 8.025,67.902 14.783,64.453 		"/>
		<polygon fill="#9FBCBD" points="16.471,53.49 14.581,64.06 7.824,67.506 		"/>
		<path fill="#9FBCBD" d="M26.443,87.258c-2.309-1.236-4.35-2.518-6.066-3.82c-0.062-0.052-0.151-0.063-0.225-0.025L4.227,90.789
			l7.399-15.972c0.033-0.074,0.026-0.159-0.025-0.224c-1.622-2.176-2.831-4.044-3.847-5.972l11.951,6.721L26.443,87.258z"/>
	</g>
	<text transform="matrix(1 0 0 1 34.9014 51.9863)" fill="#58595B" font-family="'Decima'" font-size="14">100€</text>
</g>
</svg>
