<?xml version="1.0" encoding="utf-8"?>
<!-- Generator: Adobe Illustrator 16.0.0, SVG Export Plug-In . SVG Version: 6.00 Build 0)  -->
<!DOCTYPE svg PUBLIC "-//W3C//DTD SVG 1.1//EN" "http://www.w3.org/Graphics/SVG/1.1/DTD/svg11.dtd">
<svg version="1.1" id="Layer_1" xmlns="http://www.w3.org/2000/svg" xmlns:xlink="http://www.w3.org/1999/xlink" x="0px" y="0px"
	 width="94px" height="94px" viewBox="0 0 94 94" enable-background="new 0 0 94 94" xml:space="preserve">
<g>
	<g>
		<path fill="#8E9090" d="M24.082,68.203l-9.546-4.616l-0.012-0.008l1.869-10.445c0.562,2.815,1.501,5.524,2.8,8.071
			C20.497,63.754,22.136,66.1,24.082,68.203"/>
		<polygon fill="#8E9090" points="24.918,69.44 26.207,86.322 19.64,74.717 		"/>
		<path fill="#8E9090" d="M30.476,79.496l-4.636-9.542c2.103,1.938,4.459,3.575,7.014,4.878c2.559,1.302,5.268,2.243,8.067,2.796
			l-10.442,1.868H30.476z"/>
		<polygon fill="#8E9090" points="25.411,70.078 30.105,79.738 26.666,86.501 		"/>
		<polygon fill="#8E9090" points="41.076,78.05 27.059,86.703 30.498,79.939 		"/>
		<polygon fill="#8E9090" points="41.883,78.068 40.727,85.39 40.72,85.441 27.465,86.972 		"/>
		<path fill="#8E9090" d="M53.342,91.545c-2.118,0.3-4.266,0.455-6.39,0.455c-6.78,0-13.566-1.575-19.682-4.562l13.606-1.572
			L53.342,91.545z"/>
		<polygon fill="#8E9090" points="42.32,78.137 53.302,91.038 41.157,85.51 		"/>
		<polygon fill="#8E9090" points="53.768,90.91 43.094,78.365 52.575,83.411 		"/>
		<path fill="#8E9090" d="M51.911,77.833c2.837-0.451,5.583-1.285,8.174-2.48l-7.352,7.644l-9.363-4.983
			C46.204,78.347,49.084,78.285,51.911,77.833"/>
		<polygon fill="#8E9090" points="60.456,75.606 54.205,90.84 53.012,83.342 		"/>
		<polygon fill="#8E9090" points="64.515,81.79 64.515,81.792 54.693,90.818 54.689,90.818 61.12,75.143 		"/>
		<path fill="#8E9090" d="M54.806,91.31l10.083-9.267h0.004l13.423-2.73C71.83,85.606,63.729,89.743,54.806,91.31"/>
		<polygon fill="#8E9090" points="77.982,78.923 64.912,81.591 61.516,74.945 		"/>
		<polygon fill="#8E9090" points="78.29,78.545 62.28,74.673 72.916,73.183 		"/>
		<path fill="#8E9090" d="M74.242,62.246l-1.442,10.508l-10.498,1.472c2.485-1.402,4.769-3.135,6.791-5.164
			C71.118,67.032,72.846,64.745,74.242,62.246"/>
		<polygon fill="#8E9090" points="74.689,62.231 78.598,78.233 73.229,72.871 		"/>
		<polygon fill="#8E9090" points="81.615,64.849 78.98,77.929 74.958,61.468 		"/>
		<polygon fill="#8E9090" points="90.843,54.616 81.817,64.452 75.159,61.075 		"/>
		<path fill="#8E9090" d="M82.07,64.827l9.266-10.09c-1.535,8.776-5.761,17.074-11.971,23.518L82.07,64.827z"/>
		<polygon fill="#8E9090" points="90.866,54.132 75.618,60.411 83.362,52.954 		"/>
		<path fill="#8E9090" d="M78,43.323l5.017,9.351l-0.007,0.007l-7.638,7.352c1.195-2.603,2.025-5.344,2.47-8.17
			C78.286,49.041,78.337,46.175,78,43.323"/>
		<polygon fill="#8E9090" points="90.931,53.695 83.436,52.517 83.432,52.517 78.352,43.048 		"/>
		<polygon fill="#8E9090" points="91.06,53.225 78.122,42.273 85.491,41.095 		"/>
		<path fill="#8E9090" d="M91.567,53.266L85.85,40.816l1.563-13.612c1.964,4.008,3.315,8.283,4.021,12.724
			C92.142,44.365,92.187,48.847,91.567,53.266"/>
		<polygon fill="#8E9090" points="78.051,41.836 78.139,41.697 81.644,36.005 86.949,27.402 85.421,40.659 78.158,41.822 		"/>
		<polygon fill="#8E9090" points="86.684,26.991 86.578,27.167 78.033,41.026 79.919,30.441 		"/>
		<path fill="#8E9090" d="M69.914,25.806l9.562,4.617l-1.864,10.459c-0.562-2.815-1.502-5.523-2.805-8.07
			C73.507,30.257,71.863,27.909,69.914,25.806"/>
		<polygon fill="#8E9090" points="86.482,26.598 79.717,30.052 70.046,25.38 		"/>
		<polygon fill="#8E9090" points="86.309,26.144 69.396,24.889 74.67,19.596 		"/>
		<path fill="#8E9090" d="M68.053,7.239c7.906,4.198,14.494,10.772,18.682,18.637L74.795,19.16L68.053,7.239z"/>
		<polygon fill="#8E9090" points="74.359,19.288 69.084,24.577 67.789,7.668 74.359,19.284 		"/>
		<polygon fill="#8E9090" points="68.592,23.934 63.894,14.263 67.33,7.503 		"/>
		<path fill="#8E9090" d="M68.164,24.062c-2.104-1.938-4.46-3.578-7.014-4.877c-2.562-1.307-5.271-2.246-8.071-2.8l10.445-1.876
			L68.164,24.062z"/>
		<polygon fill="#8E9090" points="66.941,7.301 63.502,14.062 52.931,15.962 		"/>
		<polygon fill="#8E9090" points="66.534,7.033 52.116,15.944 53.28,8.564 		"/>
		<path fill="#8E9090" d="M40.654,2.457c8.971-1.277,17.955,0.136,26.074,4.107l-13.605,1.57L40.654,2.457z"/>
		<polygon fill="#8E9090" points="52.843,8.494 51.68,15.875 40.698,2.963 		"/>
		<polygon fill="#8E9090" points="50.909,15.647 41.424,10.59 40.232,3.095 		"/>
		<path fill="#8E9090" d="M41.267,11.004L50.633,16c-2.834-0.327-5.718-0.268-8.541,0.183c-2.841,0.452-5.582,1.285-8.178,2.481
			L41.267,11.004z"/>
		<polygon fill="#8E9090" points="40.988,10.66 33.551,18.407 39.718,3.349 39.794,3.165 		"/>
		<polygon fill="#8E9090" points="29.481,12.212 39.31,3.183 32.883,18.869 32.879,18.869 29.481,12.215 		"/>
		<path fill="#8E9090" d="M39.193,2.691L29.11,11.958h-0.004l-13.418,2.731C22.17,8.395,30.27,4.258,39.193,2.691"/>
		<polygon fill="#8E9090" points="32.487,19.071 16.014,15.075 29.088,12.414 		"/>
		<polygon fill="#8E9090" points="31.719,19.343 21.083,20.818 15.717,15.456 		"/>
		<path fill="#8E9090" d="M31.709,19.787c-2.492,1.398-4.772,3.134-6.802,5.167c-2.022,2.029-3.751,4.319-5.149,6.819l1.442-10.526
			L31.709,19.787z"/>
		<polygon fill="#8E9090" points="20.771,21.13 19.311,31.781 15.402,15.769 		"/>
		<polygon fill="#8E9090" points="15.02,16.069 19.046,32.548 12.384,29.153 		"/>
		<path fill="#8E9090" d="M14.634,15.746l-2.705,13.429L2.665,39.264C4.203,30.489,8.424,22.19,14.634,15.746"/>
		<polygon fill="#8E9090" points="12.182,29.546 18.844,32.941 3.154,39.385 		"/>
		<polygon fill="#8E9090" points="18.381,33.608 10.637,41.051 3.135,39.869 		"/>
		<path fill="#8E9090" d="M18.635,33.975c-1.196,2.606-2.03,5.344-2.478,8.177c-0.444,2.83-0.496,5.704-0.154,8.537l-5.021-9.363
			L18.635,33.975z"/>
		<polygon fill="#8E9090" points="10.567,41.484 15.651,50.964 3.065,40.303 		"/>
		<polygon fill="#8E9090" points="15.882,51.738 8.512,52.913 2.937,40.776 		"/>
		<path fill="#8E9090" d="M2.434,40.736l5.719,12.453L6.585,66.8c-1.96-4.007-3.314-8.283-4.02-12.724
			C1.858,49.639,1.814,45.15,2.434,40.736"/>
		<polygon fill="#8E9090" points="15.952,52.179 7.051,66.606 8.582,53.35 15.952,52.175 		"/>
		<polygon fill="#8E9090" points="24.607,69.124 19.329,74.405 7.698,67.858 		"/>
		<polygon fill="#8E9090" points="23.96,68.632 7.525,67.402 14.282,63.953 		"/>
		<polygon fill="#8E9090" points="15.97,52.99 14.081,63.56 7.323,67.006 		"/>
		<path fill="#8E9090" d="M25.943,86.758c-2.309-1.236-4.35-2.518-6.067-3.82c-0.062-0.052-0.15-0.063-0.224-0.025L3.726,90.289
			l7.399-15.972c0.033-0.074,0.025-0.159-0.025-0.224c-1.623-2.176-2.831-4.044-3.847-5.972l11.95,6.721L25.943,86.758z"/>
	</g>
	<g>
		<path fill="#58595B" d="M34.827,45.894c0.294-0.295,0.756-0.603,1.442-0.603h0.098c1.457,0,2.62,1.135,2.62,2.563v1.597
			c0,1.429-1.163,2.591-2.62,2.591h-0.098c-1.457,0-2.605-1.148-2.605-2.577v-4.916c0-1.43,1.106-2.592,2.563-2.592h0.07
			c1.471,0,2.591,1.162,2.591,2.605h-1.19c0-0.826-0.603-1.485-1.442-1.485c-0.812,0-1.429,0.659-1.429,1.485V45.894z
			 M34.827,47.869v1.611c0,0.826,0.672,1.456,1.498,1.456c0.827,0,1.485-0.645,1.485-1.471v-1.597c0-0.812-0.658-1.471-1.485-1.471
			h-0.084C35.554,46.398,34.827,47.056,34.827,47.869z"/>
		<path fill="#58595B" d="M45.903,49.465c0,1.429-1.121,2.577-2.508,2.577h-0.098c-1.401,0-2.493-1.162-2.493-2.591v-4.917
			c0-1.429,1.092-2.577,2.493-2.577h0.098c1.387,0,2.508,1.148,2.508,2.577V49.465z M44.74,44.549c0-0.827-0.616-1.485-1.4-1.485
			c-0.771,0-1.387,0.658-1.387,1.485v4.916c0,0.826,0.616,1.471,1.4,1.471c0.771,0,1.387-0.63,1.387-1.456V44.549z"/>
		<path fill="#58595B" d="M52.818,49.465c0,1.429-1.12,2.577-2.507,2.577h-0.099c-1.4,0-2.493-1.162-2.493-2.591v-4.917
			c0-1.429,1.093-2.577,2.493-2.577h0.099c1.387,0,2.507,1.148,2.507,2.577V49.465z M51.656,44.549c0-0.827-0.616-1.485-1.401-1.485
			c-0.771,0-1.387,0.658-1.387,1.485v4.916c0,0.826,0.616,1.471,1.401,1.471c0.771,0,1.387-0.63,1.387-1.456V44.549z"/>
		<path fill="#58595B" d="M59.314,46.636H56.19v0.798h2.689v1.107H56.19v0.924c0,0.812,0.658,1.485,1.485,1.485
			c0.826,0,1.484-0.659,1.484-1.471v-0.169h1.177v0.154c0,1.429-1.163,2.577-2.619,2.577h-0.084c-1.457,0-2.62-1.162-2.62-2.591
			v-0.91h-0.658v-1.107h0.658v-0.798h-0.658V45.53h0.658v-0.995c0-1.429,1.163-2.577,2.62-2.577h0.084
			c1.456,0,2.619,1.106,2.619,2.592H59.16c0-0.812-0.658-1.472-1.484-1.472c-0.827,0-1.485,0.659-1.485,1.472v0.98h3.124V46.636z"/>
	</g>
</g>
</svg>
