<?xml version="1.0" encoding="utf-8"?>
<!-- Generator: Adobe Illustrator 18.0.0, SVG Export Plug-In . SVG Version: 6.00 Build 0)  -->
<!DOCTYPE svg PUBLIC "-//W3C//DTD SVG 1.1//EN" "http://www.w3.org/Graphics/SVG/1.1/DTD/svg11.dtd">
<svg version="1.1"
	 id="Layer_1" xmlns:dc="http://purl.org/dc/elements/1.1/" xmlns:cc="http://creativecommons.org/ns#" xmlns:rdf="http://www.w3.org/1999/02/22-rdf-syntax-ns#" xmlns:inkscape="http://www.inkscape.org/namespaces/inkscape" xmlns:sodipodi="http://sodipodi.sourceforge.net/DTD/sodipodi-0.dtd" xmlns:svg="http://www.w3.org/2000/svg" sodipodi:docname="menu_2017.svg" inkscape:version="0.91 r13725"
	 xmlns="http://www.w3.org/2000/svg" xmlns:xlink="http://www.w3.org/1999/xlink" x="0px" y="0px" viewBox="0 0 731.534 226.649"
	 style="enable-background:new 0 0 731.534 226.649;" xml:space="preserve">
<g id="LOGO">
	<g>
		<g>
			<path style="fill:#00B1E7;" d="M296.181,138.682c0,7.481-6.013,13.504-13.493,13.504h-0.54c-7.408,0-13.499-6.095-13.499-13.576
				v-28.461c0-7.481,6.091-13.496,13.499-13.496h0.54c7.48,0,13.493,6.015,13.493,13.496h-4.008c-0.081-5.395-4.32-9.64-9.719-9.64
				c-5.555,0-9.794,4.245-9.794,9.718v28.455c0,5.475,4.238,9.8,9.794,9.8c5.475,0,9.719-4.243,9.719-9.718v-0.386h4.008V138.682z"
				/>
			<path style="fill:#00B1E7;" d="M346.135,138.682c0,7.481-6.015,13.504-13.495,13.504h-1.465c-7.481,0-13.494-6.095-13.494-13.576
				v-28.461c0-7.481,6.013-13.496,13.494-13.496h1.465c7.48,0,13.495,6.015,13.495,13.496L346.135,138.682L346.135,138.682z
				 M342.125,110.226c0-5.473-4.243-9.718-9.719-9.718h-0.998c-5.479,0-9.718,4.245-9.718,9.718v28.455c0,5.475,4.239,9.8,9.718,9.8
				h0.998c5.476,0,9.719-4.243,9.719-9.718V110.226z"/>
			<path style="fill:#00B1E7;" d="M396.783,97.425v53.986h-5.012l-17.432-43.107l-1.231-3.705l-0.307,0.072l0.307,3.938v42.802
				h-3.934V97.425h5.012l17.505,43.424l1.158,3.389l0.307-0.082l-0.307-3.389V97.425H396.783z"/>
			<path style="fill:#00B1E7;" d="M444.807,97.425v3.705h-20.205v19.895h18.352v3.705h-18.352v26.683h-4.01V97.426L444.807,97.425
				L444.807,97.425z"/>
			<path style="fill:#00B1E7;" d="M489.365,97.425v3.705h-20.21v19.895h18.358v3.705h-18.358v22.978h20.902v3.705h-24.913V97.426
				L489.365,97.425L489.365,97.425z"/>
			<path style="fill:#00B1E7;" d="M524.82,130.816h-9.255v20.596h-4.01V97.425h13.728c6.167,0,11.256,5.017,11.256,11.257v10.798
				c0,4.711-3.161,9.179-7.632,10.726l8.793,21.206h-4.321L524.82,130.816z M532.531,108.762c0-4.089-3.39-7.479-7.481-7.479h-9.484
				v25.838h9.484c4.09,0,7.481-3.319,7.481-7.409C532.531,119.712,532.531,108.762,532.531,108.762z"/>
			<path style="fill:#00B1E7;" d="M583.409,97.425v3.705h-20.202v19.895h18.354v3.705h-18.354v22.978h20.897v3.705h-24.908V97.426
				L583.409,97.425L583.409,97.425z"/>
			<path style="fill:#00B1E7;" d="M633.207,97.425v53.986H628.2l-17.432-43.107l-1.232-3.705l-0.31,0.072l0.31,3.938v42.802H605.6
				V97.425h5.015l17.504,43.424l1.159,3.389l0.306-0.082l-0.306-3.389V97.425H633.207z"/>
			<path style="fill:#00B1E7;" d="M683.778,138.682c0,7.481-6.013,13.504-13.494,13.504h-0.539c-7.404,0-13.495-6.095-13.495-13.576
				v-28.461c0-7.481,6.091-13.496,13.495-13.496h0.539c7.481,0,13.494,6.015,13.494,13.496h-4.008
				c-0.077-5.395-4.316-9.64-9.718-9.64c-5.552,0-9.792,4.245-9.792,9.718v28.455c0,5.475,4.239,9.8,9.792,9.8
				c5.474,0,9.718-4.243,9.718-9.718v-0.386h4.008V138.682z"/>
			<path style="fill:#00B1E7;" d="M730.261,97.425v3.705H710.06v19.895h18.354v3.705H710.06v22.978h20.897v3.705h-24.908V97.426
				L730.261,97.425L730.261,97.425z"/>
			<path style="fill:#FFFFFF;" d="M294.016,213.419c0,7.15-5.609,12.899-12.545,12.899h-0.491c-7.008,0-12.472-5.823-12.472-12.963
				v-24.597c0-7.15,5.464-12.891,12.472-12.891h0.491c6.936,0,12.545,5.742,12.545,12.891V213.419z M288.195,188.828
				c0-4.136-3.084-7.43-7.004-7.43c-3.857,0-6.941,3.294-6.941,7.43v24.592c0,4.138,3.084,7.358,7.013,7.358
				c3.848,0,6.932-3.148,6.932-7.287L288.195,188.828L288.195,188.828z"/>
			<path style="fill:#FFFFFF;" d="M298.92,209.779l15.697-33.214h6.308l-15.278,33.004h11.421v-12.615h5.886v12.615h4.066v5.677
				h-4.066v10.371h-5.886v-10.371H298.92V209.779z"/>
			<path style="fill:#FFFFFF;" d="M372.713,176.565v5.533h-18.08v14.928h16.397v5.467h-16.397v23.125h-5.885v-49.052H372.713z"/>
			<path style="fill:#FFFFFF;" d="M401.936,176.565v5.533h-18.079v14.928h16.397v5.467h-16.397v17.583h18.64v5.54h-24.526v-49.052
				h23.965V176.565z"/>
			<path style="fill:#FFFFFF;" d="M433.193,187.491v3.858c0,3.292-1.751,6.303-3.997,8.34c2.665,2.166,4.483,5.185,4.483,9.107
				v5.048c0,6.868-5.813,11.772-12.262,11.772h-12.61v-49.052h12.823C428.358,176.565,433.193,181.533,433.193,187.491z
				 M414.694,182.242v14.921h7.077c3.219,0,5.745-2.447,5.745-5.531v-3.93c0-3.009-2.524-5.459-5.745-5.459h-7.077V182.242z
				 M414.694,220.077h6.724c3.715,0,6.376-2.939,6.376-6.232v-5.048c0-2.239-1.82-6.303-6.376-6.303h-6.724V220.077z"/>
			<path style="fill:#FFFFFF;" d="M454.569,189.874c0-8.197,6.099-14.007,13.313-14.007c7.287,0,13.037,5.458,13.037,12.817
				c0,14.856-21.023,18.712-21.023,31.393h21.023v5.54h-26.91v-5.123c0-16.675,21.022-20.105,21.022-32.229
				c0-3.923-3.365-6.868-7.217-6.868c-4.276,0-7.36,3.784-7.36,8.477H454.569z"/>
			<path style="fill:#FFFFFF;" d="M512.035,213.419c0,7.15-5.609,12.899-12.546,12.899h-0.491c-7.008,0-12.471-5.823-12.471-12.963
				v-24.597c0-7.15,5.463-12.891,12.471-12.891h0.491c6.937,0,12.546,5.742,12.546,12.891
				C512.035,188.757,512.035,213.419,512.035,213.419z M506.217,188.828c0-4.136-3.084-7.43-7.005-7.43
				c-3.857,0-6.941,3.294-6.941,7.43v24.592c0,4.138,3.084,7.358,7.009,7.358c3.853,0,6.937-3.148,6.937-7.287V188.828z"/>
			<path style="fill:#FFFFFF;" d="M515.541,176.565h12.263v49.052h-5.886v-43.519h-6.376L515.541,176.565L515.541,176.565z"/>
			<path style="fill:#FFFFFF;" d="M541.331,225.617c0-16.613,10.721-36.58,11.07-43.519h-18.639v-5.533h24.525v5.113
				c0,7.989-10.93,28.383-10.93,43.939H541.331z"/>
			<path style="fill:#FFFFFF;" d="M580.71,176.565h13.386c6.237,0,11.213,4.833,11.213,10.926v10.098
				c0,6.16-4.977,10.998-11.213,10.998h-7.5v17.031h-5.886V176.565z M599.35,187.565c0-2.947-2.447-5.323-5.532-5.323h-7.222v20.806
				h7.222c3.085,0,5.532-2.384,5.532-5.249C599.35,197.798,599.35,187.565,599.35,187.565z"/>
			<path style="fill:#FFFFFF;" d="M638.666,213.419c0,7.15-5.958,12.899-13.313,12.899h-1.191c-7.428,0-13.313-5.823-13.313-12.963
				v-24.597c0-7.15,5.885-12.891,13.313-12.891h1.191c7.355,0,13.313,5.742,13.313,12.891V213.419z M632.642,188.828
				c0-4.066-3.227-7.294-7.5-7.294h-0.768c-4.275,0-7.568,3.227-7.568,7.294v24.592c0,4.066,3.293,7.358,7.568,7.358h0.768
				c4.272,0,7.5-3.219,7.5-7.287V188.828z"/>
			<path style="fill:#FFFFFF;" d="M658.498,207.742h-6.305v17.875h-5.885v-49.052h13.382c6.242,0,11.216,4.833,11.216,10.926v9.325
				c0,4.484-2.383,8.197-6.376,9.951l7.988,18.85h-6.376L658.498,207.742z M664.947,187.565c0-2.947-2.452-5.323-5.468-5.323h-7.288
				v20.041h7.287c3.015,0,5.468-2.384,5.468-5.256v-9.461H664.947z"/>
			<path style="fill:#FFFFFF;" d="M674.898,176.565h26.909v5.603h-10.438v43.449h-6.096v-43.449h-10.374V176.565z"/>
			<path style="fill:#FFFFFF;" d="M731.245,213.419c0,7.15-5.959,12.899-13.319,12.899h-1.19c-7.424,0-13.309-5.823-13.309-12.963
				v-24.597c0-7.15,5.885-12.891,13.309-12.891h1.19c7.36,0,13.319,5.742,13.319,12.891V213.419z M725.217,188.828
				c0-4.066-3.224-7.294-7.501-7.294h-0.768c-4.275,0-7.568,3.227-7.568,7.294v24.592c0,4.066,3.293,7.358,7.568,7.358h0.768
				c4.276,0,7.501-3.219,7.501-7.287V188.828z"/>
		</g>
		<g>
			<g>
				<polygon style="fill:#FFFFFF;" points="268.403,0.427 310.594,0.427 310.594,12.385 295.981,12.385 295.981,71.951 
					282.905,71.951 282.905,12.385 268.403,12.385 				"/>
				<path style="fill:#FFFFFF;" d="M345.836,12.385h-2.242l-6.441,26.362h15.125L345.836,12.385z M354.936,0.427l11.135,40.251
					v31.273h-12.665V50.694h-17.379v21.257h-12.661V40.678l11.143-40.251L354.936,0.427L354.936,0.427z"/>
				<polygon style="fill:#FFFFFF;" points="397.428,0.427 397.428,59.996 419.803,59.996 419.803,71.951 384.452,71.951 
					384.452,0.427 				"/>
				<path style="fill:#FFFFFF;" d="M460.267,34.552l22.061,37.399h-15.117L445.15,34.15l21.043-33.722h15.011L460.267,34.552z
					 M445.548,71.951h-12.978V0.427h12.978V71.951z"/>
			</g>
			<path style="fill:#FFFFFF;" d="M547.936,44.221l-28.507-6.893V35.06c0,0,28.487-6.691,28.542-6.749l10.12-0.829l21.422-0.049
				V14.656h-31.534l-40.605,11.231v20.612l40.605,11.231h31.534V44.944h-21.438C558.077,44.944,547.973,44.221,547.936,44.221z"/>
			<path style="fill:#FFFFFF;" d="M618.131,59.996h7.039c3.689,0,6.446-2.762,6.446-5.926v-7.554c0-2.053-1.943-6.029-6.446-6.029
				h-7.039C618.131,40.486,618.131,59.996,618.131,59.996z M618.131,12.385v16.152h7.459c3.165,0,5.721-2.253,5.721-5.015v-6.128
				c0-2.768-2.556-5.007-5.721-5.007L618.131,12.385L618.131,12.385z M644.076,17.184v5.942c0,4.179-2.037,8.06-4.597,11.128
				c3.068,3.164,5.31,7.245,5.31,12.157v7.658c0,10.731-9.392,17.881-19.618,17.881h-20.12V0.427h20.43
				C636.315,0.427,644.076,7.788,644.076,17.184"/>
			<rect x="663.207" y="0.427" style="fill:#FFFFFF;" width="13.077" height="71.523"/>
			<polygon style="fill:#FFFFFF;" points="689.053,0.427 731.253,0.427 731.253,12.385 716.638,12.385 716.638,71.951 
				703.554,71.951 703.554,12.385 689.053,12.385 			"/>
		</g>
	</g>
	<g>
		<g>
			<path style="fill:#009ADD;" d="M55.705,166.495l-23.961-11.592l-0.027-0.018l4.69-26.216c1.408,7.064,3.769,13.862,7.029,20.255
				C46.706,155.33,50.824,161.215,55.705,166.495"/>
			<polygon style="fill:#009ADD;" points="57.805,169.596 61.041,211.969 44.558,182.845 			"/>
			<path style="fill:#009ADD;" d="M71.752,194.835l-11.636-23.949c5.279,4.866,11.193,8.975,17.605,12.241
				c6.42,3.27,13.22,5.63,20.248,7.024l-26.209,4.685L71.752,194.835L71.752,194.835z"/>
			<polygon style="fill:#009ADD;" points="59.039,171.199 70.822,195.444 62.191,212.421 			"/>
			<polygon style="fill:#009ADD;" points="98.359,191.207 63.178,212.927 71.809,195.95 			"/>
			<polygon style="fill:#009ADD;" points="100.385,191.251 97.482,209.629 97.464,209.759 64.198,213.602 			"/>
			<path style="fill:#009ADD;" d="M129.146,225.076c-5.316,0.757-10.705,1.144-16.039,1.144c-17.016,0-34.052-3.954-49.398-11.449
				l34.149-3.944L129.146,225.076z"/>
			<polygon style="fill:#009ADD;" points="101.48,191.427 129.044,223.806 98.56,209.932 			"/>
			<polygon style="fill:#009ADD;" points="130.213,223.487 103.425,191.998 127.219,204.664 			"/>
			<path style="fill:#009ADD;" d="M125.551,190.664c7.121-1.135,14.012-3.225,20.516-6.228l-18.451,19.187l-23.499-12.51
				C111.225,191.952,118.46,191.796,125.551,190.664"/>
			<polygon style="fill:#009ADD;" points="146.999,185.073 131.312,223.308 128.317,204.491 			"/>
			<polygon style="fill:#009ADD;" points="157.186,200.594 157.186,200.602 132.534,223.253 132.524,223.253 148.662,183.911 			"/>
			<path style="fill:#009ADD;" d="M132.82,224.488l25.304-23.259h0.011l33.688-6.856
				C175.548,210.173,155.217,220.553,132.82,224.488"/>
			<polygon style="fill:#009ADD;" points="190.986,193.399 158.182,200.096 149.658,183.413 			"/>
			<polygon style="fill:#009ADD;" points="191.76,192.45 151.575,182.732 178.273,178.993 			"/>
			<path style="fill:#009ADD;" d="M181.598,151.542l-3.619,26.374l-26.348,3.695c6.239-3.519,11.967-7.865,17.04-12.959
				C173.76,163.554,178.096,157.814,181.598,151.542"/>
			<polygon style="fill:#009ADD;" points="182.723,151.505 192.534,191.668 179.057,178.208 			"/>
			<polygon style="fill:#009ADD;" points="200.105,158.075 193.491,190.906 183.397,149.588 			"/>
			<polygon style="fill:#009ADD;" points="223.265,132.392 200.613,157.079 183.9,148.606 			"/>
			<path style="fill:#009ADD;" d="M201.25,158.018l23.251-25.323c-3.85,22.025-14.454,42.853-30.041,59.027L201.25,158.018z"/>
			<polygon style="fill:#009ADD;" points="223.321,131.176 185.054,146.937 204.489,128.219 			"/>
			<path style="fill:#009ADD;" d="M191.034,104.047l12.592,23.47l-0.018,0.018l-19.17,18.451c3.003-6.531,5.084-13.413,6.2-20.506
				C191.75,118.4,191.878,111.203,191.034,104.047"/>
			<polygon style="fill:#009ADD;" points="223.487,130.079 204.676,127.121 204.666,127.121 191.915,103.357 			"/>
			<polygon style="fill:#009ADD;" points="223.809,128.9 191.335,101.415 209.834,98.456 			"/>
			<path style="fill:#009ADD;" d="M225.078,129.001l-14.342-31.245l3.923-34.165c4.929,10.06,8.321,20.79,10.089,31.937
				C226.528,106.662,226.636,117.911,225.078,129.001"/>
			<polygon style="fill:#009ADD;" points="191.162,100.316 191.382,99.969 200.178,85.68 213.492,64.087 209.659,97.358 
				191.427,100.279 			"/>
			<polygon style="fill:#009ADD;" points="212.828,63.056 212.561,63.497 191.116,98.281 195.851,71.715 			"/>
			<path style="fill:#009ADD;" d="M170.739,60.082l23.998,11.588l-4.679,26.251c-1.408-7.064-3.769-13.864-7.037-20.257
				C179.754,71.253,175.63,65.359,170.739,60.082"/>
			<polygon style="fill:#009ADD;" points="212.322,62.072 195.345,70.738 171.072,59.01 			"/>
			<polygon style="fill:#009ADD;" points="211.888,60.927 169.438,57.777 182.676,44.495 			"/>
			<path style="fill:#009ADD;" d="M166.066,13.479c19.843,10.537,36.38,27.035,46.891,46.774l-29.969-16.856L166.066,13.479z"/>
			<polygon style="fill:#009ADD;" points="181.894,43.722 168.656,56.995 165.404,14.557 181.894,43.711 			"/>
			<polygon style="fill:#009ADD;" points="167.423,55.383 155.631,31.111 164.252,14.143 			"/>
			<path style="fill:#009ADD;" d="M166.343,55.705c-5.278-4.864-11.192-8.983-17.607-12.243c-6.428-3.278-13.227-5.638-20.255-7.03
				l26.218-4.705L166.343,55.705z"/>
			<polygon style="fill:#009ADD;" points="163.275,13.637 154.644,30.604 128.114,35.375 			"/>
			<polygon style="fill:#009ADD;" points="162.252,12.962 126.067,35.33 128.986,16.804 			"/>
			<path style="fill:#009ADD;" d="M97.299,1.478c22.516-3.206,45.065,0.339,65.441,10.306l-34.148,3.944L97.299,1.478z"/>
			<polygon style="fill:#009ADD;" points="127.892,16.63 124.972,35.155 97.408,2.748 			"/>
			<polygon style="fill:#009ADD;" points="123.035,34.583 99.232,21.888 96.238,3.081 			"/>
			<path style="fill:#009ADD;" d="M98.838,22.93l23.508,12.539c-7.112-0.818-14.353-0.674-21.436,0.459
				c-7.131,1.134-14.012,3.222-20.525,6.228L98.838,22.93z"/>
			<polygon style="fill:#009ADD;" points="98.138,22.065 79.472,41.509 94.949,3.717 95.142,3.255 			"/>
			<polygon style="fill:#009ADD;" points="69.257,25.962 93.927,3.302 77.795,42.67 77.788,42.67 69.257,25.97 			"/>
			<path style="fill:#009ADD;" d="M93.63,2.065L68.326,25.324h-0.01l-33.68,6.854C50.905,16.381,71.237,6.003,93.63,2.065"/>
			<polygon style="fill:#009ADD;" points="76.801,43.178 35.456,33.146 68.271,26.467 			"/>
			<polygon style="fill:#009ADD;" points="74.878,43.859 48.178,47.561 34.711,34.105 			"/>
			<path style="fill:#009ADD;" d="M74.848,44.975c-6.255,3.508-11.975,7.865-17.069,12.97c-5.077,5.095-9.415,10.843-12.925,17.115
				l3.622-26.418L74.848,44.975z"/>
			<polygon style="fill:#009ADD;" points="47.397,48.345 43.729,75.077 33.92,34.89 			"/>
			<polygon style="fill:#009ADD;" points="32.962,35.643 43.066,77.003 26.344,68.481 			"/>
			<path style="fill:#009ADD;" d="M31.992,34.832l-6.787,33.704L1.952,93.86C5.813,71.833,16.406,51.007,31.992,34.832"/>
			<polygon style="fill:#009ADD;" points="25.839,69.467 42.56,77.987 3.178,94.162 			"/>
			<polygon style="fill:#009ADD;" points="41.4,79.663 21.961,98.347 3.131,95.378 			"/>
			<path style="fill:#009ADD;" d="M42.034,80.586c-3.005,6.539-5.095,13.413-6.218,20.524c-1.115,7.103-1.243,14.315-0.387,21.426
				L22.827,99.038L42.034,80.586z"/>
			<polygon style="fill:#009ADD;" points="21.786,99.432 34.545,123.226 2.956,96.466 			"/>
			<polygon style="fill:#009ADD;" points="35.125,125.168 16.627,128.117 2.635,97.654 			"/>
			<path style="fill:#009ADD;" d="M1.372,97.552l14.351,31.259l-3.932,34.165c-4.919-10.063-8.318-20.792-10.089-31.937
				C-0.075,119.899-0.184,108.633,1.372,97.552"/>
			<polygon style="fill:#009ADD;" points="35.301,126.277 12.961,162.485 16.801,129.213 35.301,126.265 			"/>
			<polygon style="fill:#009ADD;" points="57.021,168.804 43.775,182.061 14.583,165.628 			"/>
			<polygon style="fill:#009ADD;" points="55.401,167.573 14.149,164.483 31.11,155.828 			"/>
			<polygon style="fill:#009ADD;" points="35.347,128.312 30.602,154.84 13.641,163.489 			"/>
			<path style="fill:#009ADD;" d="M60.376,213.067c-5.793-3.103-10.915-6.321-15.229-9.588c-0.155-0.13-0.378-0.157-0.562-0.064
				L4.616,221.927l18.571-40.087c0.082-0.185,0.062-0.394-0.066-0.56c-4.07-5.461-7.101-10.151-9.651-14.988l29.994,16.868
				L60.376,213.067z"/>
		</g>
	</g>
</g>
</svg>
