<?xml version="1.0" encoding="utf-8"?>
<!-- Generator: Adobe Illustrator 16.0.0, SVG Export Plug-In . SVG Version: 6.00 Build 0)  -->
<!DOCTYPE svg PUBLIC "-//W3C//DTD SVG 1.1//EN" "http://www.w3.org/Graphics/SVG/1.1/DTD/svg11.dtd">
<svg version="1.1" xmlns="http://www.w3.org/2000/svg" xmlns:xlink="http://www.w3.org/1999/xlink" x="0px" y="0px"
	 width="822.047px" height="311.905px" viewBox="0 0 822.047 311.905" enable-background="new 0 0 822.047 311.905"
	 xml:space="preserve">
<g id="fundos" display="none">
	<rect x="-0.488" y="0" display="inline" width="822.047" height="311.811"/>
</g>
<g id="Layer_1">
	<g>
		<g>
			<path fill="#1399D6" d="M97.665,209.723l-24.053-11.635l-0.027-0.018l4.707-26.318c1.414,7.092,3.783,13.916,7.055,20.334
				C88.632,198.514,92.765,204.424,97.665,209.723"/>
			<polygon fill="#1399D6" points="99.774,212.838 103.021,255.377 86.476,226.137 			"/>
			<path fill="#1399D6" d="M113.774,238.176l-11.68-24.043c5.299,4.883,11.236,9.008,17.672,12.289
				c6.445,3.283,13.271,5.652,20.326,7.049l-26.309,4.705H113.774z"/>
			<polygon fill="#1399D6" points="101.013,214.447 112.841,238.787 104.177,255.83 			"/>
			<polygon fill="#1399D6" points="140.483,234.533 105.167,256.338 113.831,239.295 			"/>
			<polygon fill="#1399D6" points="142.517,234.578 139.603,253.027 139.585,253.158 106.192,257.014 			"/>
			<path fill="#1399D6" d="M171.388,268.535c-5.336,0.76-10.746,1.148-16.1,1.148c-17.082,0-34.182-3.969-49.588-11.494
				l34.281-3.959L171.388,268.535z"/>
			<polygon fill="#1399D6" points="143.616,234.754 171.286,267.26 140.685,253.332 			"/>
			<polygon fill="#1399D6" points="172.46,266.938 145.569,235.328 169.454,248.043 			"/>
			<path fill="#1399D6" d="M167.78,233.988c7.148-1.139,14.066-3.238,20.594-6.252l-18.521,19.262l-23.59-12.559
				C153.399,235.281,160.661,235.125,167.78,233.988"/>
			<polygon fill="#1399D6" points="189.31,228.375 173.562,266.76 170.556,247.869 			"/>
			<polygon fill="#1399D6" points="199.536,243.957 199.536,243.965 174.79,266.705 174.78,266.705 190.981,227.209 			"/>
			<path fill="#1399D6" d="M175.077,267.945l25.402-23.35h0.01l33.818-6.883C217.968,253.574,197.558,263.994,175.077,267.945"/>
			<polygon fill="#1399D6" points="233.466,236.734 200.536,243.457 191.981,226.709 			"/>
			<polygon fill="#1399D6" points="234.243,235.781 193.905,226.025 220.704,222.27 			"/>
			<path fill="#1399D6" d="M224.042,194.713l-3.633,26.475l-26.449,3.709c6.262-3.533,12.012-7.896,17.107-13.01
				C216.173,206.771,220.528,201.01,224.042,194.713"/>
			<polygon fill="#1399D6" points="225.171,194.676 235.019,234.996 221.491,221.484 			"/>
			<polygon fill="#1399D6" points="242.62,201.27 235.981,234.229 225.847,192.752 			"/>
			<polygon fill="#1399D6" points="265.868,175.488 243.13,200.271 226.354,191.764 			"/>
			<path fill="#1399D6" d="M243.769,201.215l23.34-25.422c-3.865,22.111-14.51,43.02-30.156,59.258L243.769,201.215z"/>
			<polygon fill="#1399D6" points="265.925,174.266 227.511,190.09 247.022,171.299 			"/>
			<path fill="#1399D6" d="M233.513,147.033l12.641,23.562l-0.018,0.018l-19.244,18.523c3.014-6.557,5.104-13.465,6.223-20.586
				C234.233,161.441,234.362,154.217,233.513,147.033"/>
			<polygon fill="#1399D6" points="266.091,173.166 247.208,170.197 247.198,170.197 234.399,146.34 			"/>
			<polygon fill="#1399D6" points="266.415,171.982 233.817,144.389 252.386,141.42 			"/>
			<path fill="#1399D6" d="M267.69,172.084l-14.398-31.367l3.939-34.299c4.947,10.098,8.352,20.871,10.127,32.061
				C269.144,149.658,269.253,160.951,267.69,172.084"/>
			<polygon fill="#1399D6" points="233.642,143.287 233.864,142.938 242.694,128.594 256.058,106.916 252.21,140.318 
				233.909,143.25 			"/>
			<polygon fill="#1399D6" points="255.392,105.881 255.124,106.324 233.595,141.244 238.349,114.574 			"/>
			<path fill="#1399D6" d="M213.14,102.895l24.09,11.633l-4.697,26.355c-1.414-7.092-3.783-13.918-7.064-20.336
				C222.192,114.111,218.05,108.193,213.14,102.895"/>
			<polygon fill="#1399D6" points="254.884,104.893 237.841,113.594 213.474,101.82 			"/>
			<polygon fill="#1399D6" points="254.448,103.744 211.835,100.582 225.124,87.248 			"/>
			<path fill="#1399D6" d="M208.45,56.111c19.92,10.578,36.52,27.141,47.072,46.957l-30.084-16.922L208.45,56.111z"/>
			<polygon fill="#1399D6" points="224.339,86.471 211.05,99.797 207.786,57.193 224.339,86.461 			"/>
			<polygon fill="#1399D6" points="209.812,98.178 197.974,73.811 206.63,56.777 			"/>
			<path fill="#1399D6" d="M208.729,98.502c-5.299-4.883-11.236-9.018-17.674-12.291c-6.453-3.291-13.279-5.66-20.334-7.057
				l26.318-4.723L208.729,98.502z"/>
			<polygon fill="#1399D6" points="205.649,56.268 196.985,73.303 170.353,78.092 			"/>
			<polygon fill="#1399D6" points="204.622,55.592 168.298,78.047 171.229,59.449 			"/>
			<path fill="#1399D6" d="M139.419,44.062c22.602-3.219,45.238,0.34,65.693,10.346l-34.279,3.959L139.419,44.062z"/>
			<polygon fill="#1399D6" points="170.13,59.273 167.198,77.871 139.528,45.338 			"/>
			<polygon fill="#1399D6" points="165.255,77.297 141.36,64.553 138.354,45.672 			"/>
			<path fill="#1399D6" d="M140.964,65.598l23.598,12.588c-7.139-0.822-14.408-0.676-21.518,0.461
				c-7.158,1.137-14.066,3.236-20.604,6.252L140.964,65.598z"/>
			<polygon fill="#1399D6" points="140.261,64.729 121.524,84.25 137.06,46.309 137.255,45.846 			"/>
			<polygon fill="#1399D6" points="111.269,68.641 136.034,45.893 119.841,85.416 119.833,85.416 111.269,68.65 			"/>
			<path fill="#1399D6" d="M135.737,44.652l-25.402,23.35h-0.01l-33.809,6.881C92.847,59.023,113.257,48.604,135.737,44.652"/>
			<polygon fill="#1399D6" points="118.843,85.926 77.339,75.854 110.28,69.148 			"/>
			<polygon fill="#1399D6" points="116.911,86.609 90.11,90.326 76.591,76.816 			"/>
			<path fill="#1399D6" d="M116.882,87.729c-6.279,3.523-12.021,7.896-17.135,13.02c-5.096,5.115-9.451,10.885-12.975,17.182
				l3.635-26.521L116.882,87.729z"/>
			<polygon fill="#1399D6" points="89.325,91.113 85.644,117.949 75.796,77.604 			"/>
			<polygon fill="#1399D6" points="74.835,78.361 84.978,119.883 68.192,111.328 			"/>
			<path fill="#1399D6" d="M73.862,77.547l-6.814,33.836l-23.342,25.422C47.581,114.693,58.216,93.785,73.862,77.547"/>
			<polygon fill="#1399D6" points="67.685,112.318 84.47,120.871 44.937,137.109 			"/>
			<polygon fill="#1399D6" points="83.306,122.553 63.792,141.309 44.89,138.33 			"/>
			<path fill="#1399D6" d="M83.942,123.479c-3.016,6.566-5.115,13.465-6.242,20.604c-1.119,7.131-1.248,14.371-0.389,21.51
				l-12.65-23.59L83.942,123.479z"/>
			<polygon fill="#1399D6" points="63.616,142.4 76.425,166.287 44.714,139.422 			"/>
			<polygon fill="#1399D6" points="77.007,168.236 58.438,171.197 44.392,140.615 			"/>
			<path fill="#1399D6" d="M43.124,140.512l14.406,31.379l-3.947,34.299c-4.938-10.1-8.35-20.873-10.127-32.061
				C41.671,162.947,41.562,151.637,43.124,140.512"/>
			<polygon fill="#1399D6" points="77.183,169.348 54.757,205.699 58.612,172.297 77.183,169.338 			"/>
			<polygon fill="#1399D6" points="98.987,212.043 85.69,225.35 56.386,208.852 			"/>
			<polygon fill="#1399D6" points="97.36,210.805 55.95,207.705 72.976,199.014 			"/>
			<polygon fill="#1399D6" points="77.229,171.391 72.466,198.023 55.44,206.707 			"/>
			<path fill="#1399D6" d="M102.354,256.477c-5.816-3.115-10.957-6.344-15.287-9.625c-0.156-0.131-0.379-0.158-0.564-0.064
				L46.38,265.373l18.643-40.244c0.082-0.186,0.062-0.398-0.066-0.564c-4.086-5.482-7.129-10.191-9.689-15.047l30.109,16.934
				L102.354,256.477z"/>
		</g>
		<g>
			<g>
				<g>
					<path fill="#1399D6" d="M338.618,181.592v0.304c0,3.725-1.307,6.886-3.912,9.495c-2.598,2.596-5.756,3.898-9.48,3.898h-0.541
						c-3.666,0-6.814-1.319-9.438-3.943c-2.631-2.622-3.941-5.795-3.941-9.522v-28.227c0-3.719,1.311-6.884,3.941-9.487
						c2.623-2.597,5.771-3.903,9.438-3.903h0.541c3.725,0,6.883,1.307,9.48,3.903c2.605,2.604,3.912,5.769,3.912,9.487h-3.984
						c-0.049-2.745-1.008-5.05-2.865-6.92c-1.865-1.862-4.121-2.796-6.773-2.796c-2.752,0-5.064,0.934-6.922,2.799
						c-1.859,1.867-2.793,4.163-2.793,6.869v28.318c0,2.715,0.934,5.015,2.793,6.909c1.857,1.899,4.17,2.84,6.922,2.84
						c2.705,0,4.986-0.933,6.848-2.791c1.859-1.862,2.791-4.146,2.791-6.844v-0.39H338.618z"/>
					<path fill="#1399D6" d="M389.026,153.597v28.299c0,3.725-1.303,6.886-3.898,9.495c-2.609,2.596-5.77,3.898-9.494,3.898h-1.451
						c-3.725,0-6.885-1.319-9.486-3.943c-2.596-2.622-3.898-5.795-3.898-9.522v-28.227c0-3.719,1.303-6.884,3.898-9.487
						c2.602-2.597,5.762-3.903,9.486-3.903h1.451c3.725,0,6.885,1.307,9.494,3.903C387.724,146.713,389.026,149.878,389.026,153.597
						z M385.046,181.945v-28.396c0-2.706-0.928-5.002-2.791-6.869c-1.865-1.865-4.145-2.799-6.848-2.799h-0.998
						c-2.703,0-4.982,0.934-6.838,2.799c-1.865,1.867-2.795,4.163-2.795,6.869v28.318c0,2.715,0.93,5.015,2.795,6.909
						c1.855,1.899,4.135,2.84,6.838,2.84h0.998c2.703,0,4.982-0.933,6.848-2.798C384.118,186.946,385.046,184.659,385.046,181.945z"
						/>
					<path fill="#1399D6" d="M436.224,140.973h3.975v53.545h-5.051l-17.312-42.745l-1.119-3.685l-0.312,0.074l0.312,3.898v42.457
						h-3.975v-53.545h4.941l17.367,43.082l1.174,3.351l0.309-0.072l-0.309-3.367V140.973z"/>
					<path fill="#1399D6" d="M464.601,140.973h24.02v3.675h-20.039v19.73h18.211v3.684h-18.211v26.456h-3.98V140.973z"/>
					<path fill="#1399D6" d="M509.655,140.973h24.021v3.675h-20.041v19.73h18.207v3.684h-18.207v22.784h20.727v3.672h-24.707
						V140.973z"/>
					<path fill="#1399D6" d="M578.204,194.518l-8.557-20.419h-9.121v20.419h-3.975v-53.545h13.613c3.062,0,5.684,1.089,7.879,3.262
						c2.195,2.178,3.297,4.828,3.297,7.943v10.743c0,2.362-0.742,4.532-2.219,6.532c-1.479,1.991-3.354,3.371-5.621,4.142
						l8.67,20.923H578.204z M577.358,163.04v-10.935c0-2.046-0.725-3.806-2.176-5.271c-1.457-1.461-3.203-2.188-5.248-2.188h-9.408
						v25.779h9.408c2.045,0,3.791-0.719,5.248-2.154C576.634,166.836,577.358,165.088,577.358,163.04z"/>
					<path fill="#1399D6" d="M604.663,140.973h24.018v3.675h-20.037v19.73h18.211v3.684h-18.211v22.784h20.729v3.672h-24.709
						V140.973z"/>
					<path fill="#1399D6" d="M675.042,140.973h3.98v53.545h-5.049l-17.322-42.745l-1.111-3.685l-0.311,0.074l0.311,3.898v42.457
						h-3.98v-53.545h4.945l17.363,43.082l1.174,3.351l0.312-0.072l-0.312-3.367V140.973z"/>
					<path fill="#1399D6" d="M729.97,181.592v0.304c0,3.725-1.305,6.886-3.9,9.495c-2.605,2.596-5.771,3.898-9.492,3.898h-0.531
						c-3.674,0-6.822-1.319-9.451-3.943c-2.621-2.622-3.936-5.795-3.936-9.522v-28.227c0-3.719,1.314-6.884,3.936-9.487
						c2.629-2.597,5.777-3.903,9.451-3.903h0.531c3.721,0,6.887,1.307,9.492,3.903c2.596,2.604,3.9,5.769,3.9,9.487h-3.984
						c-0.047-2.745-1.006-5.05-2.863-6.92c-1.867-1.862-4.121-2.796-6.777-2.796c-2.75,0-5.059,0.934-6.916,2.799
						c-1.861,1.867-2.793,4.163-2.793,6.869v28.318c0,2.715,0.932,5.015,2.793,6.909c1.857,1.899,4.166,2.84,6.916,2.84
						c2.703,0,4.986-0.933,6.85-2.791c1.867-1.862,2.791-4.146,2.791-6.844v-0.39H729.97z"/>
					<path fill="#1399D6" d="M752.917,140.973h24.018v3.675h-20.041v19.73h18.207v3.684h-18.207v22.784h20.732v3.672h-24.709
						V140.973z"/>
				</g>
				<g>
					<polygon fill="#FFFFFF" points="311.478,42.911 353.995,42.911 353.995,54.965 339.269,54.965 339.269,114.993 
						326.087,114.993 326.087,54.965 311.478,54.965 					"/>
					<path fill="#FFFFFF" d="M389.507,54.965h-2.26l-6.49,26.566h15.24L389.507,54.965z M398.675,42.911l11.227,40.567v31.515
						h-12.764V93.572H379.62v21.421h-12.76V83.479l11.23-40.567H398.675z"/>
					<path fill="#FFFFFF" d="M504.534,77.303l22.234,37.69h-15.24l-22.23-38.1l21.205-33.982h15.129L504.534,77.303z
						 M489.702,114.993h-13.078V42.911h13.078V114.993z"/>
					<polygon fill="#FFFFFF" points="441.343,42.911 441.343,102.939 463.892,102.939 463.892,114.993 428.267,114.993 
						428.267,42.911 					"/>
					<path fill="#FFFFFF" d="M593.177,87.045l-28.725-6.946V77.81c0,0,28.707-6.738,28.764-6.799l10.195-0.832l21.588-0.048V57.249
						H593.22l-40.914,11.319v20.772l40.914,11.319h31.779V87.778h-21.6C603.399,87.778,593.216,87.045,593.177,87.045z"/>
					<path fill="#FFFFFF" d="M663.915,102.939h7.1c3.715,0,6.492-2.777,6.492-5.968v-7.615c0-2.064-1.957-6.077-6.492-6.077h-7.1
						V102.939z M663.915,54.965v16.273h7.516c3.193,0,5.768-2.271,5.768-5.051v-6.175c0-2.792-2.574-5.048-5.768-5.048H663.915z
						 M690.067,59.802v5.984c0,4.215-2.053,8.121-4.635,11.213c3.088,3.188,5.348,7.307,5.348,12.253v7.72
						c0,10.812-9.461,18.021-19.766,18.021h-20.277V42.911h20.586C682.239,42.911,690.067,50.331,690.067,59.802"/>
					<rect x="709.343" y="42.911" fill="#FFFFFF" width="13.178" height="72.082"/>
					<polygon fill="#FFFFFF" points="735.388,42.911 777.917,42.911 777.917,54.965 763.19,54.965 763.19,114.993 750.005,114.993 
						750.005,54.965 735.388,54.965 					"/>
				</g>
			</g>
			<g>
				<path fill="#FFFFFF" d="M313.996,219.362h23.108v5.245l-8.435,10.985c4.894,0.636,9.64,5.245,9.64,11.057v9.922
					c0,7.228-5.883,13.112-13.256,13.112h-0.497c-7.371,0-13.251-5.811-13.251-13.043v-1.417h5.954v1.491
					c0,4.182,3.329,7.37,7.58,7.37c4.188,0,7.519-3.262,7.519-7.444v-9.922c0-3.046-2.483-5.6-5.604-5.6h-5.313v-5.313l8.078-10.843
					h-15.523V219.362z"/>
				<path fill="#FFFFFF" d="M371.132,256.64c0,7.232-5.675,13.043-12.69,13.043h-0.495c-7.09,0-12.615-5.884-12.615-13.112v-24.878
					c0-7.228,5.525-13.039,12.615-13.039h0.495c7.016,0,12.69,5.811,12.69,13.039V256.64z M365.243,231.766
					c0-4.182-3.12-7.513-7.086-7.513c-3.902,0-7.021,3.331-7.021,7.513v24.874c0,4.182,3.119,7.444,7.094,7.444
					c3.894,0,7.014-3.188,7.014-7.37V231.766z"/>
				<path fill="#FFFFFF" d="M400.328,219.362v38.837c0,6.381-5.243,11.483-11.836,11.483c-6.519,0-11.765-5.103-11.765-11.483
					v-7.793h5.954v8.147c0,3.05,2.621,5.53,5.672,5.53c3.259,0,5.808-2.48,5.808-5.53v-39.192H400.328z"/>
				<path fill="#FFFFFF" d="M427.122,219.362l8.578,28.561v21.051h-6.026v-15.806h-15.309v15.806h-5.952v-21.189l8.573-28.422
					H427.122z M422.728,224.961h-1.344l-6.735,22.68h14.884L422.728,224.961z"/>
				<path fill="#FFFFFF" d="M471.425,219.362v49.612h-6.521l-15.31-37.917l0.494,3.965v33.952h-5.95v-49.612h6.517l15.308,37.848
					l-0.492-3.826v-34.021H471.425z"/>
				<path fill="#FFFFFF" d="M492.05,232.829c0-8.295,6.17-14.175,13.467-14.175c7.371,0,13.188,5.525,13.188,12.969
					c0,15.025-21.267,18.921-21.267,31.752h21.267v5.599h-27.221v-5.175c0-16.866,21.267-20.34,21.267-32.604
					c0-3.966-3.405-6.942-7.303-6.942c-4.325,0-7.443,3.828-7.443,8.576H492.05z"/>
				<path fill="#FFFFFF" d="M550.104,256.64c0,7.232-5.668,13.043-12.688,13.043h-0.497c-7.087,0-12.615-5.884-12.615-13.112
					v-24.878c0-7.228,5.528-13.039,12.615-13.039h0.497c7.021,0,12.688,5.811,12.688,13.039V256.64z M544.22,231.766
					c0-4.182-3.119-7.513-7.09-7.513c-3.896,0-7.015,3.331-7.015,7.513v24.874c0,4.182,3.119,7.444,7.089,7.444
					c3.896,0,7.016-3.188,7.016-7.37V231.766z"/>
				<path fill="#FFFFFF" d="M553.582,219.362h12.402v49.612h-5.952v-44.012h-6.45V219.362z"/>
				<path fill="#FFFFFF" d="M580.301,238.569c1.487-1.49,3.828-3.049,7.297-3.049h0.496c7.371,0,13.259,5.741,13.259,12.973v8.079
					c0,7.228-5.888,13.112-13.259,13.112h-0.496c-7.371,0-13.18-5.811-13.18-13.043v-24.874c0-7.232,5.598-13.112,12.968-13.112
					h0.359c7.438,0,13.11,5.879,13.11,13.181h-6.026c0-4.182-3.046-7.513-7.3-7.513c-4.108,0-7.229,3.331-7.229,7.513V238.569z
					 M580.301,248.562v8.152c0,4.182,3.4,7.37,7.582,7.37c4.183,0,7.513-3.262,7.513-7.444v-8.078c0-4.112-3.33-7.444-7.513-7.444
					h-0.423C583.985,241.118,580.301,244.449,580.301,248.562z"/>
				<path fill="#FFFFFF" d="M622.826,219.362h13.541c6.305,0,11.34,4.891,11.34,11.056v10.208c0,6.234-5.035,11.125-11.34,11.125
					h-7.587v17.223h-5.954V219.362z M641.681,230.487c0-2.977-2.475-5.384-5.595-5.384h-7.306v21.048h7.306
					c3.12,0,5.595-2.411,5.595-5.314V230.487z"/>
				<path fill="#FFFFFF" d="M682.153,256.64c0,7.232-6.026,13.043-13.467,13.043h-1.207c-7.51,0-13.462-5.884-13.462-13.112v-24.878
					c0-7.228,5.952-13.039,13.462-13.039h1.207c7.44,0,13.467,5.811,13.467,13.039V256.64z M676.058,231.766
					c0-4.113-3.26-7.375-7.585-7.375h-0.777c-4.323,0-7.656,3.262-7.656,7.375v24.874c0,4.113,3.333,7.444,7.656,7.444h0.777
					c4.325,0,7.585-3.262,7.585-7.37V231.766z"/>
				<path fill="#FFFFFF" d="M702.922,250.899h-6.378v18.074h-5.954v-49.612h13.537c6.312,0,11.345,4.891,11.345,11.056v9.425
					c0,4.536-2.41,8.295-6.451,10.067l8.078,19.063h-6.447L702.922,250.899z M709.445,230.487c0-2.977-2.481-5.384-5.53-5.384
					h-7.371v20.27h7.371c3.049,0,5.53-2.411,5.53-5.317V230.487z"/>
				<path fill="#FFFFFF" d="M720.219,219.362h27.216v5.669h-10.559v43.943h-6.166v-43.943h-10.491V219.362z"/>
				<path fill="#FFFFFF" d="M777.917,256.64c0,7.232-6.026,13.043-13.467,13.043h-1.205c-7.514,0-13.465-5.884-13.465-13.112
					v-24.878c0-7.228,5.951-13.039,13.465-13.039h1.205c7.44,0,13.467,5.811,13.467,13.039V256.64z M771.825,231.766
					c0-4.113-3.268-7.375-7.588-7.375h-0.776c-4.324,0-7.656,3.262-7.656,7.375v24.874c0,4.113,3.332,7.444,7.656,7.444h0.776
					c4.32,0,7.588-3.262,7.588-7.37V231.766z"/>
			</g>
		</g>
	</g>
</g>
<g id="réguas" display="none">
	<g display="inline">
		<rect x="-0.001" y="269.318" opacity="0.5" fill="#1399D6" width="822.047" height="42.469"/>
		<rect x="-0.001" opacity="0.5" fill="#1399D6" width="822.047" height="42.469"/>
		<rect x="268.786" opacity="0.5" fill="#1399D6" width="42.52" height="311.812"/>
		<rect x="-0.489" opacity="0.5" fill="#1399D6" width="42.52" height="311.812"/>
		<rect x="780.017" opacity="0.5" fill="#1399D6" width="42.52" height="311.812"/>
	</g>
</g>
</svg>
