<?xml version="1.0" encoding="utf-8"?>
<!-- Generator: Adobe Illustrator 16.0.0, SVG Export Plug-In . SVG Version: 6.00 Build 0)  -->
<!DOCTYPE svg PUBLIC "-//W3C//DTD SVG 1.1//EN" "http://www.w3.org/Graphics/SVG/1.1/DTD/svg11.dtd">
<svg version="1.1" xmlns="http://www.w3.org/2000/svg" xmlns:xlink="http://www.w3.org/1999/xlink" x="0px" y="0px"
	 width="822.047px" height="311.905px" viewBox="0 0 822.047 311.905" enable-background="new 0 0 822.047 311.905"
	 xml:space="preserve">
<g id="fundos" display="none">
	<rect x="-0.488" y="0" display="inline" width="822.047" height="311.811"/>
</g>
<g id="Layer_1">
	<g>
		<g>
			<path fill="#1399D6" d="M97.665,209.723l-24.053-11.635l-0.027-0.018l4.707-26.318c1.414,7.092,3.783,13.916,7.055,20.334
				C88.632,198.514,92.765,204.424,97.665,209.723"/>
			<polygon fill="#1399D6" points="99.774,212.838 103.021,255.377 86.476,226.137 			"/>
			<path fill="#1399D6" d="M113.774,238.176l-11.68-24.043c5.299,4.883,11.236,9.008,17.672,12.289
				c6.445,3.283,13.271,5.652,20.326,7.049l-26.309,4.705H113.774z"/>
			<polygon fill="#1399D6" points="101.013,214.447 112.841,238.787 104.177,255.83 			"/>
			<polygon fill="#1399D6" points="140.483,234.533 105.167,256.338 113.831,239.295 			"/>
			<polygon fill="#1399D6" points="142.517,234.578 139.603,253.027 139.585,253.158 106.192,257.014 			"/>
			<path fill="#1399D6" d="M171.388,268.535c-5.336,0.76-10.746,1.148-16.1,1.148c-17.082,0-34.182-3.969-49.588-11.494
				l34.281-3.959L171.388,268.535z"/>
			<polygon fill="#1399D6" points="143.616,234.754 171.286,267.26 140.685,253.332 			"/>
			<polygon fill="#1399D6" points="172.46,266.938 145.569,235.328 169.454,248.043 			"/>
			<path fill="#1399D6" d="M167.78,233.988c7.148-1.139,14.066-3.238,20.594-6.252l-18.521,19.262l-23.59-12.559
				C153.399,235.281,160.661,235.125,167.78,233.988"/>
			<polygon fill="#1399D6" points="189.31,228.375 173.562,266.76 170.556,247.869 			"/>
			<polygon fill="#1399D6" points="199.536,243.957 199.536,243.965 174.79,266.705 174.78,266.705 190.981,227.209 			"/>
			<path fill="#1399D6" d="M175.077,267.945l25.402-23.35h0.01l33.818-6.883C217.968,253.574,197.558,263.994,175.077,267.945"/>
			<polygon fill="#1399D6" points="233.466,236.734 200.536,243.457 191.981,226.709 			"/>
			<polygon fill="#1399D6" points="234.243,235.781 193.905,226.025 220.704,222.27 			"/>
			<path fill="#1399D6" d="M224.042,194.713l-3.633,26.475l-26.449,3.709c6.262-3.533,12.012-7.896,17.107-13.01
				C216.173,206.771,220.528,201.01,224.042,194.713"/>
			<polygon fill="#1399D6" points="225.171,194.676 235.019,234.996 221.491,221.484 			"/>
			<polygon fill="#1399D6" points="242.62,201.27 235.981,234.229 225.847,192.752 			"/>
			<polygon fill="#1399D6" points="265.868,175.488 243.13,200.271 226.354,191.764 			"/>
			<path fill="#1399D6" d="M243.769,201.215l23.34-25.422c-3.865,22.111-14.51,43.02-30.156,59.258L243.769,201.215z"/>
			<polygon fill="#1399D6" points="265.925,174.266 227.511,190.09 247.022,171.299 			"/>
			<path fill="#1399D6" d="M233.513,147.033l12.641,23.562l-0.018,0.018l-19.244,18.523c3.014-6.557,5.104-13.465,6.223-20.586
				C234.233,161.441,234.362,154.217,233.513,147.033"/>
			<polygon fill="#1399D6" points="266.091,173.166 247.208,170.197 247.198,170.197 234.399,146.34 			"/>
			<polygon fill="#1399D6" points="266.415,171.982 233.817,144.389 252.386,141.42 			"/>
			<path fill="#1399D6" d="M267.69,172.084l-14.398-31.367l3.939-34.299c4.947,10.098,8.352,20.871,10.127,32.061
				C269.144,149.658,269.253,160.951,267.69,172.084"/>
			<polygon fill="#1399D6" points="233.642,143.287 233.864,142.938 242.694,128.594 256.058,106.916 252.21,140.318 
				233.909,143.25 			"/>
			<polygon fill="#1399D6" points="255.392,105.881 255.124,106.324 233.595,141.244 238.349,114.574 			"/>
			<path fill="#1399D6" d="M213.14,102.895l24.09,11.633l-4.697,26.355c-1.414-7.092-3.783-13.918-7.064-20.336
				C222.192,114.111,218.05,108.193,213.14,102.895"/>
			<polygon fill="#1399D6" points="254.884,104.893 237.841,113.594 213.474,101.82 			"/>
			<polygon fill="#1399D6" points="254.448,103.744 211.835,100.582 225.124,87.248 			"/>
			<path fill="#1399D6" d="M208.45,56.111c19.92,10.578,36.52,27.141,47.072,46.957l-30.084-16.922L208.45,56.111z"/>
			<polygon fill="#1399D6" points="224.339,86.471 211.05,99.797 207.786,57.193 224.339,86.461 			"/>
			<polygon fill="#1399D6" points="209.812,98.178 197.974,73.811 206.63,56.777 			"/>
			<path fill="#1399D6" d="M208.729,98.502c-5.299-4.883-11.236-9.018-17.674-12.291c-6.453-3.291-13.279-5.66-20.334-7.057
				l26.318-4.723L208.729,98.502z"/>
			<polygon fill="#1399D6" points="205.649,56.268 196.985,73.303 170.353,78.092 			"/>
			<polygon fill="#1399D6" points="204.622,55.592 168.298,78.047 171.229,59.449 			"/>
			<path fill="#1399D6" d="M139.419,44.062c22.602-3.219,45.238,0.34,65.693,10.346l-34.279,3.959L139.419,44.062z"/>
			<polygon fill="#1399D6" points="170.13,59.273 167.198,77.871 139.528,45.338 			"/>
			<polygon fill="#1399D6" points="165.255,77.297 141.36,64.553 138.354,45.672 			"/>
			<path fill="#1399D6" d="M140.964,65.598l23.598,12.588c-7.139-0.822-14.408-0.676-21.518,0.461
				c-7.158,1.137-14.066,3.236-20.604,6.252L140.964,65.598z"/>
			<polygon fill="#1399D6" points="140.261,64.729 121.524,84.25 137.06,46.309 137.255,45.846 			"/>
			<polygon fill="#1399D6" points="111.269,68.641 136.034,45.893 119.841,85.416 119.833,85.416 111.269,68.65 			"/>
			<path fill="#1399D6" d="M135.737,44.652l-25.402,23.35h-0.01l-33.809,6.881C92.847,59.023,113.257,48.604,135.737,44.652"/>
			<polygon fill="#1399D6" points="118.843,85.926 77.339,75.854 110.28,69.148 			"/>
			<polygon fill="#1399D6" points="116.911,86.609 90.11,90.326 76.591,76.816 			"/>
			<path fill="#1399D6" d="M116.882,87.729c-6.279,3.523-12.021,7.896-17.135,13.02c-5.096,5.115-9.451,10.885-12.975,17.182
				l3.635-26.521L116.882,87.729z"/>
			<polygon fill="#1399D6" points="89.325,91.113 85.644,117.949 75.796,77.604 			"/>
			<polygon fill="#1399D6" points="74.835,78.361 84.978,119.883 68.192,111.328 			"/>
			<path fill="#1399D6" d="M73.862,77.547l-6.814,33.836l-23.342,25.422C47.581,114.693,58.216,93.785,73.862,77.547"/>
			<polygon fill="#1399D6" points="67.685,112.318 84.47,120.871 44.937,137.109 			"/>
			<polygon fill="#1399D6" points="83.306,122.553 63.792,141.309 44.89,138.33 			"/>
			<path fill="#1399D6" d="M83.942,123.479c-3.016,6.566-5.115,13.465-6.242,20.604c-1.119,7.131-1.248,14.371-0.389,21.51
				l-12.65-23.59L83.942,123.479z"/>
			<polygon fill="#1399D6" points="63.616,142.4 76.425,166.287 44.714,139.422 			"/>
			<polygon fill="#1399D6" points="77.007,168.236 58.438,171.197 44.392,140.615 			"/>
			<path fill="#1399D6" d="M43.124,140.512l14.406,31.379l-3.947,34.299c-4.938-10.1-8.35-20.873-10.127-32.061
				C41.671,162.947,41.562,151.637,43.124,140.512"/>
			<polygon fill="#1399D6" points="77.183,169.348 54.757,205.699 58.612,172.297 77.183,169.338 			"/>
			<polygon fill="#1399D6" points="98.987,212.043 85.69,225.35 56.386,208.852 			"/>
			<polygon fill="#1399D6" points="97.36,210.805 55.95,207.705 72.976,199.014 			"/>
			<polygon fill="#1399D6" points="77.229,171.391 72.466,198.023 55.44,206.707 			"/>
			<path fill="#1399D6" d="M102.354,256.477c-5.816-3.115-10.957-6.344-15.287-9.625c-0.156-0.131-0.379-0.158-0.564-0.064
				L46.38,265.373l18.643-40.244c0.082-0.186,0.062-0.398-0.066-0.564c-4.086-5.482-7.129-10.191-9.689-15.047l30.109,16.934
				L102.354,256.477z"/>
		</g>
		<g>
			<g>
				<g>
					<path fill="#1399D6" d="M338.618,181.592v0.304c0,3.725-1.307,6.886-3.912,9.495c-2.598,2.596-5.756,3.898-9.48,3.898h-0.541
						c-3.666,0-6.814-1.319-9.438-3.943c-2.631-2.622-3.941-5.795-3.941-9.522v-28.227c0-3.719,1.311-6.884,3.941-9.487
						c2.623-2.597,5.771-3.903,9.438-3.903h0.541c3.725,0,6.883,1.307,9.48,3.903c2.605,2.604,3.912,5.769,3.912,9.487h-3.984
						c-0.049-2.745-1.008-5.05-2.865-6.92c-1.865-1.862-4.121-2.796-6.773-2.796c-2.752,0-5.064,0.934-6.922,2.799
						c-1.859,1.867-2.793,4.163-2.793,6.869v28.318c0,2.715,0.934,5.015,2.793,6.909c1.857,1.899,4.17,2.84,6.922,2.84
						c2.705,0,4.986-0.933,6.848-2.791c1.859-1.862,2.791-4.146,2.791-6.844v-0.39H338.618z"/>
					<path fill="#1399D6" d="M389.026,153.597v28.299c0,3.725-1.303,6.886-3.898,9.495c-2.609,2.596-5.77,3.898-9.494,3.898h-1.451
						c-3.725,0-6.885-1.319-9.486-3.943c-2.596-2.622-3.898-5.795-3.898-9.522v-28.227c0-3.719,1.303-6.884,3.898-9.487
						c2.602-2.597,5.762-3.903,9.486-3.903h1.451c3.725,0,6.885,1.307,9.494,3.903C387.724,146.713,389.026,149.878,389.026,153.597
						z M385.046,181.945v-28.396c0-2.706-0.928-5.002-2.791-6.869c-1.865-1.865-4.145-2.799-6.848-2.799h-0.998
						c-2.703,0-4.982,0.934-6.838,2.799c-1.865,1.867-2.795,4.163-2.795,6.869v28.318c0,2.715,0.93,5.015,2.795,6.909
						c1.855,1.899,4.135,2.84,6.838,2.84h0.998c2.703,0,4.982-0.933,6.848-2.798C384.118,186.946,385.046,184.659,385.046,181.945z"
						/>
					<path fill="#1399D6" d="M436.224,140.973h3.975v53.545h-5.051l-17.312-42.745l-1.119-3.685l-0.312,0.074l0.312,3.898v42.457
						h-3.975v-53.545h4.941l17.367,43.082l1.174,3.351l0.309-0.072l-0.309-3.367V140.973z"/>
					<path fill="#1399D6" d="M464.601,140.973h24.02v3.675h-20.039v19.73h18.211v3.684h-18.211v26.456h-3.98V140.973z"/>
					<path fill="#1399D6" d="M509.655,140.973h24.021v3.675h-20.041v19.73h18.207v3.684h-18.207v22.784h20.727v3.672h-24.707
						V140.973z"/>
					<path fill="#1399D6" d="M578.204,194.518l-8.557-20.419h-9.121v20.419h-3.975v-53.545h13.613c3.062,0,5.684,1.089,7.879,3.262
						c2.195,2.178,3.297,4.828,3.297,7.943v10.743c0,2.362-0.742,4.532-2.219,6.532c-1.479,1.991-3.354,3.371-5.621,4.142
						l8.67,20.923H578.204z M577.358,163.04v-10.935c0-2.046-0.725-3.806-2.176-5.271c-1.457-1.461-3.203-2.188-5.248-2.188h-9.408
						v25.779h9.408c2.045,0,3.791-0.719,5.248-2.154C576.634,166.836,577.358,165.088,577.358,163.04z"/>
					<path fill="#1399D6" d="M604.663,140.973h24.018v3.675h-20.037v19.73h18.211v3.684h-18.211v22.784h20.729v3.672h-24.709
						V140.973z"/>
					<path fill="#1399D6" d="M675.042,140.973h3.98v53.545h-5.049l-17.322-42.745l-1.111-3.685l-0.311,0.074l0.311,3.898v42.457
						h-3.98v-53.545h4.945l17.363,43.082l1.174,3.351l0.312-0.072l-0.312-3.367V140.973z"/>
					<path fill="#1399D6" d="M729.97,181.592v0.304c0,3.725-1.305,6.886-3.9,9.495c-2.605,2.596-5.771,3.898-9.492,3.898h-0.531
						c-3.674,0-6.822-1.319-9.451-3.943c-2.621-2.622-3.936-5.795-3.936-9.522v-28.227c0-3.719,1.314-6.884,3.936-9.487
						c2.629-2.597,5.777-3.903,9.451-3.903h0.531c3.721,0,6.887,1.307,9.492,3.903c2.596,2.604,3.9,5.769,3.9,9.487h-3.984
						c-0.047-2.745-1.006-5.05-2.863-6.92c-1.867-1.862-4.121-2.796-6.777-2.796c-2.75,0-5.059,0.934-6.916,2.799
						c-1.861,1.867-2.793,4.163-2.793,6.869v28.318c0,2.715,0.932,5.015,2.793,6.909c1.857,1.899,4.166,2.84,6.916,2.84
						c2.703,0,4.986-0.933,6.85-2.791c1.867-1.862,2.791-4.146,2.791-6.844v-0.39H729.97z"/>
					<path fill="#1399D6" d="M752.917,140.973h24.018v3.675h-20.041v19.73h18.207v3.684h-18.207v22.784h20.732v3.672h-24.709
						V140.973z"/>
				</g>
				<g>
					<polygon fill="#FFFFFF" points="311.478,42.911 353.995,42.911 353.995,54.965 339.269,54.965 339.269,114.993 
						326.087,114.993 326.087,54.965 311.478,54.965 					"/>
					<path fill="#FFFFFF" d="M389.507,54.965h-2.26l-6.49,26.566h15.24L389.507,54.965z M398.675,42.911l11.227,40.567v31.515
						h-12.764V93.572H379.62v21.421h-12.76V83.479l11.23-40.567H398.675z"/>
					<path fill="#FFFFFF" d="M504.534,77.303l22.234,37.69h-15.24l-22.23-38.1l21.205-33.982h15.129L504.534,77.303z
						 M489.702,114.993h-13.078V42.911h13.078V114.993z"/>
					<polygon fill="#FFFFFF" points="441.343,42.911 441.343,102.939 463.892,102.939 463.892,114.993 428.267,114.993 
						428.267,42.911 					"/>
					<path fill="#FFFFFF" d="M593.177,87.045l-28.725-6.946V77.81c0,0,28.707-6.738,28.764-6.799l10.195-0.832l21.588-0.048V57.249
						H593.22l-40.914,11.319v20.772l40.914,11.319h31.779V87.778h-21.6C603.399,87.778,593.216,87.045,593.177,87.045z"/>
					<path fill="#FFFFFF" d="M663.915,102.939h7.1c3.715,0,6.492-2.777,6.492-5.968v-7.615c0-2.064-1.957-6.077-6.492-6.077h-7.1
						V102.939z M663.915,54.965v16.273h7.516c3.193,0,5.768-2.271,5.768-5.051v-6.175c0-2.792-2.574-5.048-5.768-5.048H663.915z
						 M690.067,59.802v5.984c0,4.215-2.053,8.121-4.635,11.213c3.088,3.188,5.348,7.307,5.348,12.253v7.72
						c0,10.812-9.461,18.021-19.766,18.021h-20.277V42.911h20.586C682.239,42.911,690.067,50.331,690.067,59.802"/>
					<rect x="709.343" y="42.911" fill="#FFFFFF" width="13.178" height="72.082"/>
					<polygon fill="#FFFFFF" points="735.388,42.911 777.917,42.911 777.917,54.965 763.19,54.965 763.19,114.993 750.005,114.993 
						750.005,54.965 735.388,54.965 					"/>
				</g>
			</g>
			<g>
				<path fill="#FFFFFF" d="M317.042,239.365c1.445-1.449,3.727-2.967,7.111-2.967h0.486c7.18,0,12.91,5.588,12.91,12.638v7.87
					c0,7.046-5.73,12.776-12.91,12.776h-0.486c-7.184,0-12.848-5.661-12.848-12.708v-24.233c0-7.05,5.461-12.781,12.641-12.781
					h0.346c7.248,0,12.775,5.731,12.775,12.847h-5.871c0-4.08-2.967-7.318-7.109-7.318c-4.01,0-7.045,3.238-7.045,7.318V239.365z
					 M317.042,249.105v7.938c0,4.078,3.312,7.188,7.387,7.188c4.076,0,7.318-3.182,7.318-7.257v-7.869
					c0-4.01-3.242-7.253-7.318-7.253h-0.414C320.63,241.853,317.042,245.096,317.042,249.105z"/>
				<path fill="#FFFFFF" d="M372.288,220.65v5.45h-17.812v14.714h16.156v5.385h-16.156v22.789h-5.805V220.65H372.288z"/>
				<path fill="#FFFFFF" d="M405.302,220.65v5.45h-17.814v14.714h16.158v5.385h-16.158v17.34h18.367v5.449h-24.166V220.65H405.302z"
					/>
				<path fill="#FFFFFF" d="M440.317,231.426v3.795c0,3.247-1.723,6.218-3.936,8.219c2.627,2.144,4.424,5.113,4.424,8.982v4.972
					c0,6.766-5.73,11.595-12.082,11.595h-12.432V220.65h12.639C435.554,220.65,440.317,225.557,440.317,231.426z M422.091,226.243
					v14.708h6.979c3.172,0,5.656-2.411,5.656-5.45v-3.863c0-2.976-2.484-5.395-5.656-5.395H422.091z M422.091,263.539h6.633
					c3.656,0,6.279-2.902,6.279-6.146v-4.972c0-2.213-1.795-6.223-6.279-6.223h-6.633V263.539z"/>
				<path fill="#FFFFFF" d="M467.054,233.771c0-8.08,6.01-13.812,13.121-13.812c7.18,0,12.842,5.386,12.842,12.64
					c0,14.639-20.715,18.434-20.715,30.939h20.715v5.449h-26.516v-5.036c0-16.442,20.715-19.818,20.715-31.763
					c0-3.872-3.314-6.774-7.109-6.774c-4.213,0-7.252,3.73-7.252,8.356H467.054z"/>
				<path fill="#FFFFFF" d="M527.208,256.975c0,7.047-5.523,12.708-12.365,12.708h-0.479c-6.906,0-12.293-5.73-12.293-12.776
					v-24.242c0-7.043,5.387-12.704,12.293-12.704h0.479c6.842,0,12.365,5.661,12.365,12.704V256.975z M521.476,232.741
					c0-4.079-3.043-7.326-6.908-7.326c-3.795,0-6.834,3.247-6.834,7.326v24.233c0,4.075,3.039,7.257,6.908,7.257
					c3.791,0,6.834-3.109,6.834-7.188V232.741z"/>
				<path fill="#FFFFFF" d="M534.187,220.65h12.084v48.338h-5.801v-42.888h-6.283V220.65z"/>
				<path fill="#FFFFFF" d="M563.815,239.365c1.443-1.449,3.725-2.967,7.111-2.967h0.486c7.18,0,12.916,5.588,12.916,12.638v7.87
					c0,7.046-5.736,12.776-12.916,12.776h-0.486c-7.186,0-12.846-5.661-12.846-12.708v-24.233c0-7.05,5.459-12.781,12.637-12.781
					h0.346c7.25,0,12.777,5.731,12.777,12.847h-5.869c0-4.08-2.971-7.318-7.109-7.318c-4.01,0-7.047,3.238-7.047,7.318V239.365z
					 M563.815,249.105v7.938c0,4.078,3.312,7.188,7.387,7.188s7.322-3.182,7.322-7.257v-7.869c0-4.01-3.248-7.253-7.322-7.253
					h-0.414C567.403,241.853,563.815,245.096,563.815,249.105z"/>
				<path fill="#FFFFFF" d="M612.435,220.65h13.189c6.148,0,11.053,4.765,11.053,10.775v9.94c0,6.079-4.904,10.84-11.053,10.84
					h-7.387v16.782h-5.803V220.65z M630.806,231.491c0-2.897-2.416-5.248-5.457-5.248h-7.111v20.517h7.111
					c3.041,0,5.457-2.354,5.457-5.183V231.491z"/>
				<path fill="#FFFFFF" d="M673.829,256.975c0,7.047-5.865,12.708-13.117,12.708h-1.174c-7.316,0-13.121-5.73-13.121-12.776
					v-24.242c0-7.043,5.805-12.704,13.121-12.704h1.174c7.252,0,13.117,5.661,13.117,12.704V256.975z M667.896,232.741
					c0-4.015-3.178-7.185-7.391-7.185h-0.758c-4.215,0-7.457,3.17-7.457,7.185v24.233c0,4.006,3.242,7.257,7.457,7.257h0.758
					c4.213,0,7.391-3.182,7.391-7.188V232.741z"/>
				<path fill="#FFFFFF" d="M697.661,251.383h-6.213v17.605h-5.801V220.65h13.191c6.145,0,11.047,4.765,11.047,10.775v9.177
					c0,4.424-2.346,8.089-6.283,9.814l7.871,18.571h-6.283L697.661,251.383z M704.017,231.491c0-2.897-2.418-5.248-5.389-5.248
					h-7.18v19.753h7.18c2.971,0,5.389-2.35,5.389-5.182V231.491z"/>
				<path fill="#FFFFFF" d="M718.108,220.65h26.52v5.523h-10.293v42.814h-6.006v-42.814h-10.221V220.65z"/>
				<path fill="#FFFFFF" d="M777.917,256.975c0,7.047-5.873,12.708-13.127,12.708h-1.172c-7.316,0-13.121-5.73-13.121-12.776
					v-24.242c0-7.043,5.805-12.704,13.121-12.704h1.172c7.254,0,13.127,5.661,13.127,12.704V256.975z M771.976,232.741
					c0-4.015-3.176-7.185-7.387-7.185h-0.76c-4.213,0-7.459,3.17-7.459,7.185v24.233c0,4.006,3.246,7.257,7.459,7.257h0.76
					c4.211,0,7.387-3.182,7.387-7.188V232.741z"/>
			</g>
		</g>
	</g>
</g>
<g id="réguas" display="none">
	<g display="inline">
		<rect x="-0.001" y="269.318" opacity="0.5" fill="#1399D6" width="822.047" height="42.469"/>
		<rect x="-0.001" opacity="0.5" fill="#1399D6" width="822.047" height="42.469"/>
		<rect x="268.786" opacity="0.5" fill="#1399D6" width="42.52" height="311.812"/>
		<rect x="-0.489" opacity="0.5" fill="#1399D6" width="42.52" height="311.812"/>
		<rect x="780.017" opacity="0.5" fill="#1399D6" width="42.52" height="311.812"/>
	</g>
</g>
</svg>
